<?xml version="1.0" encoding="UTF-8"?>
<svg xmlns="http://www.w3.org/2000/svg" xmlns:xlink="http://www.w3.org/1999/xlink" version="1.1" x="0px" y="0px" viewBox="0 0 3710 3710" style="background: transparent;" xml:space="preserve">
<g id="Background">
	<g>
		<g>
			
		</g>
	</g>
</g>
<g id="Illustration">
	<g>
		<linearGradient id="SVGID_1_" gradientUnits="userSpaceOnUse" x1="3455.9028" y1="3238.7732" x2="1413.2765" y2="1451.4766">
			<stop offset="0" style="stop-color:#B37CFF"/>
			<stop offset="1" style="stop-color:#F895E7"/>
		</linearGradient>
		<path style="opacity:0.3;fill:url(#SVGID_1_);" d="M3108.763,2310.55c-263.99,621.589-967.197,969.808-1577.02,875.877    c-99.23-15.285-371.273-60.814-612.13-275.608C455.948,2497.324,356.79,1678.551,730.815,1101.542    c272.224-419.961,760.214-658.023,1223.899-646.115c99.878,2.565,482.652,18.373,819.044,295.755    c49.409,40.742,158.386,137.556,256.601,291.145C3260.985,1402.981,3280.808,1905.453,3108.763,2310.55z"/>
		<g>
			<g>
				
					<linearGradient id="SVGID_00000053521283644497297500000016423615042301088955_" gradientUnits="userSpaceOnUse" x1="2210.7732" y1="2125.8787" x2="4693.7261" y2="-116.7913">
					<stop offset="0" style="stop-color:#B37CFF"/>
					<stop offset="1" style="stop-color:#F895E7"/>
				</linearGradient>
				<path style="fill:url(#SVGID_00000053521283644497297500000016423615042301088955_);" d="M3090.013,774.117      c-2.329-13.463-21.201-14.859-25.428-1.865c-40.865,125.617-158.336,451.65-325.444,620.365      c-272.091,274.707-464.377,731.013-307.428,977.874C2431.713,2370.49,3343.791,2241.052,3090.013,774.117z"/>
				<path style="opacity:0.43;fill:#FFFFFF;" d="M3057.499,954.415c-0.493,4.141-1.228,7.518-1.859,11.185l-2.096,10.77      l-4.427,21.47c-3.049,14.289-6.315,28.525-9.583,42.763c-6.636,28.449-13.626,56.813-20.876,85.114      c-14.604,56.573-30.739,112.743-47.715,168.659c-16.899,55.945-35.362,111.417-54.993,166.474      c-19.678,55.038-40.143,109.819-62.399,163.898c-44.292,108.224-94.512,214.142-152.015,316.086      c-29.282,50.658-59.903,100.579-93.355,148.615c-33.784,47.779-69.618,94.145-108.672,137.691      c-0.849,0.947-2.305,1.026-3.252,0.177c-0.923-0.828-1.022-2.233-0.239-3.181l0.021-0.024      c37.198-44.865,71.917-91.648,104.267-140.035c32.49-48.303,62.141-98.451,90.443-149.295      c28.282-50.875,54.509-102.881,79.547-155.44c25.021-52.583,47.854-106.176,70.378-159.881      c44.604-107.634,83.44-217.607,119.222-328.537c17.774-55.51,34.431-111.384,50.093-167.54      c7.876-28.066,15.494-56.207,22.763-84.438l10.569-42.426l5.065-21.257l2.412-10.645c0.734-3.499,1.582-7.249,2.098-10.337      l0.085-0.51c0.208-1.244,1.384-2.084,2.628-1.877C3056.814,952.095,3057.64,953.214,3057.499,954.415z"/>
			</g>
			<g>
				
					<linearGradient id="SVGID_00000013889726118160547200000015029007356290753169_" gradientUnits="userSpaceOnUse" x1="3841.231" y1="-245.1385" x2="2445.2063" y2="1230.9872" gradientTransform="matrix(0.9993 0.0364 -0.0364 0.9993 97.4279 3.8587)">
					<stop offset="0" style="stop-color:#B37CFF"/>
					<stop offset="1" style="stop-color:#F895E7"/>
				</linearGradient>
				<path style="fill:url(#SVGID_00000013889726118160547200000015029007356290753169_);" d="M2627.352,474.579      c-5.378-11.915-23.194-8.693-24.002,4.355c-7.806,126.145-38.638,456.275-153.085,652.544      c-186.345,319.57-255.321,788.281-50.875,979.424C2399.391,2110.901,3213.358,1772.81,2627.352,474.579z"/>
				<path style="opacity:0.43;fill:#FFFFFF;" d="M2640.402,649.373c0.536,3.962,0.664,7.263,0.957,10.811l0.637,10.48l1.041,20.949      c0.598,13.967,0.98,27.937,1.362,41.908c0.663,27.942,0.979,55.891,1.039,83.843c0.014,55.904-1.491,111.799-3.833,167.661      c-2.263,55.87-6.094,111.677-11.108,167.378c-5.061,55.695-10.913,111.341-18.592,166.765      c-15.141,110.856-36.337,220.993-65.228,329.19c-15.017,53.934-31.45,107.504-50.957,160.007      c-19.882,52.342-41.997,103.864-67.777,153.539c-0.571,1.1-1.925,1.529-3.025,0.958c-1.073-0.556-1.507-1.858-1-2.942      l0.014-0.028c23.708-50.468,44.669-102.113,63.05-154.678c18.533-52.52,33.997-106.068,48.044-159.938      c14.023-53.894,25.878-108.342,36.495-163.02c10.598-54.696,18.923-109.804,26.947-164.94      c15.579-110.374,25.244-221.539,31.874-332.858c3.195-55.673,5.265-111.417,6.351-167.184      c0.588-27.883,0.92-55.774,0.906-83.665l-0.349-41.829l-0.387-20.904l-0.308-10.438c-0.156-3.416-0.268-7.096-0.526-10.071      l-0.044-0.503c-0.106-1.224,0.799-2.303,2.023-2.409C2639.191,647.352,2640.242,648.206,2640.402,649.373z"/>
			</g>
		</g>
		<g>
			
				<linearGradient id="SVGID_00000099655057658250435350000010845285639962992266_" gradientUnits="userSpaceOnUse" x1="3316.947" y1="954.3909" x2="2204.6619" y2="3665.1692">
				<stop offset="0" style="stop-color:#CE1567"/>
				<stop offset="1" style="stop-color:#7A1DBC"/>
			</linearGradient>
			<path style="fill:url(#SVGID_00000099655057658250435350000010845285639962992266_);" d="M3163.028,1584.263     c-0.125-7.167-3.118-13.985-8.311-18.927c-5.192-4.942-12.149-7.596-19.314-7.367l-579.76,18.525     c-14.756,0.471-26.346,12.8-25.906,27.558l28.606,960.17c0.435,14.571,12.446,26.117,27.022,25.975l568.106-5.525     c7.136-0.07,13.949-2.985,18.927-8.099c4.978-5.114,7.706-12.004,7.583-19.139L3163.028,1584.263z"/>
			<g style="opacity:0.35;">
				<path style="fill:#FFFFFF;" d="M3102.545,1629.967h-516.278c-5.021,0-9.051,3.308-8.999,8.069l0.493,45.391      c0.052,4.782,4.192,10.097,9.229,10.103l517.748,0.495c5.126,0.006,9.093-5.522,8.928-10.347l-1.571-45.546      C3111.931,1633.327,3107.656,1629.967,3102.545,1629.967z"/>
				<path style="fill:#FFFFFF;" d="M3105.896,1728.362l-518.526-0.863c-5.043-0.009-9.079,4.805-9.027,9.608l0.497,46.063      c0.052,4.823,4.201,9.397,9.259,9.411l520.009,1.436c5.148,0.015,9.164-4.577,8.998-9.445l-1.584-46.483      C3115.357,1733.242,3111.03,1728.37,3105.896,1728.362z"/>
				<path style="fill:#FFFFFF;" d="M3109.395,1832.199l-520.872-1.771c-5.066-0.017-9.147,2.323-9.095,7.168l0.502,46.466      c0.052,4.865,4.21,8.543,9.289,8.566l522.289,2.324c5.171,0.023,9.237-3.652,9.07-8.563l-1.599-46.894      C3118.813,1834.607,3114.552,1832.217,3109.395,1832.199z"/>
				<path style="fill:#FFFFFF;" d="M3112.806,1933.469l-523.159-2.665c-5.088-0.026-9.177,3.273-9.124,8.16l0.507,46.874      c0.052,4.908,4.218,7.676,9.32,7.707l524.589,3.228c5.194,0.032,9.31-2.709,9.141-7.663l-1.613-47.309      C3122.299,1936.867,3117.986,1933.495,3112.806,1933.469z"/>
				<path style="fill:#FFFFFF;" d="M3116.248,2035.628l-525.467-3.575c-5.11-0.034-9.206,4.24-9.153,9.17l0.511,47.287      c0.053,4.952,4.266,10.317,9.39,10.358l526.99,4.179c5.218,0.042,9.264-5.308,9.094-10.306l-1.627-47.73      C3125.817,2040.035,3121.451,2035.663,3116.248,2035.628z"/>
				<path style="fill:#FFFFFF;" d="M3119.72,2138.688l-527.796-4.5c-5.132-0.043-9.236,5.224-9.182,10.197l0.515,47.707      c0.054,4.995,4.274,9.448,9.421,9.498l529.333,5.115c5.241,0.051,9.338-4.363,9.166-9.406l-1.641-48.157      C3129.365,2144.121,3124.946,2138.732,3119.72,2138.688z"/>
				<path style="fill:#FFFFFF;" d="M3123.344,2246.263l-530.226-5.474c-5.156-0.054-9.306,2.655-9.251,7.673l0.52,48.131      c0.055,5.04,4.283,8.564,9.453,8.623l531.696,6.067c5.265,0.06,9.413-3.401,9.24-8.489l-1.657-48.59      C3132.945,2249.139,3128.595,2246.317,3123.344,2246.263z"/>
				<path style="fill:#FFFFFF;" d="M3126.88,2351.195l-532.597-6.433c-5.178-0.062-9.336,3.642-9.281,8.705l0.524,48.561      c0.055,5.085,4.292,7.663,9.485,7.731l534.079,7.037c5.289,0.07,9.49-2.421,9.314-7.555l-1.672-49.028      C3136.558,2355.101,3132.154,2351.258,3126.88,2351.195z"/>
				<path style="fill:#FFFFFF;" d="M3130.446,2457.064l-534.989-7.408c-5.202-0.072-9.367,4.647-9.312,9.755l0.529,48.997      c0.056,5.131,4.341,10.4,9.558,10.478l536.568,8.056c5.314,0.08,9.442-5.111,9.265-10.292l-1.687-49.472      C3140.203,2462.02,3135.744,2457.137,3130.446,2457.064z"/>
			</g>
		</g>
		<g>
			
				<linearGradient id="SVGID_00000072269876392161834740000018278871030526913416_" gradientUnits="userSpaceOnUse" x1="2002.0941" y1="1908.1635" x2="2644.2744" y2="1908.1635">
				<stop offset="0" style="stop-color:#A737D5"/>
				<stop offset="1" style="stop-color:#EF497A"/>
			</linearGradient>
			<path style="fill:url(#SVGID_00000072269876392161834740000018278871030526913416_);" d="M2619.157,1231.883     c-0.279-14.918-12.368-27.194-27.187-27.194H2031.86c-15.017,0-29.766,12.917-29.766,28.038v1351.532     c0,7.274,4.162,14.25,9.277,19.387c5.116,5.136,12.694,8.011,19.919,7.992l585.627-1.61c7.287-0.02,14.421-2.985,19.519-8.229     c5.097-5.245,7.971-12.493,7.834-19.83L2619.157,1231.883z"/>
			<g style="opacity:0.5;">
				<g>
					<polygon style="fill:#FFFFFF;" points="2206.665,1363.95 2047.102,1363.735 2045.836,1281.382 2205.554,1281.382      "/>
					<polygon style="fill:#FFFFFF;" points="2385.517,1363.909 2226.114,1363.693 2225.022,1281.382 2384.58,1281.382      "/>
					<polygon style="fill:#FFFFFF;" points="2564.19,1363.868 2404.947,1363.652 2404.029,1281.382 2563.426,1281.382      "/>
				</g>
				<g>
					<polygon style="fill:#FFFFFF;" points="2208.659,1511.771 2049.374,1511.873 2048.112,1430.058 2207.552,1429.992      "/>
					<polygon style="fill:#FFFFFF;" points="2387.2,1511.656 2228.074,1511.758 2226.986,1429.984 2386.266,1429.918      "/>
					<g>
						<polygon style="fill:#FFFFFF;" points="2565.562,1511.541 2406.596,1511.643 2405.68,1429.91 2564.8,1429.844       "/>
					</g>
				</g>
				<g>
					<polygon style="fill:#FFFFFF;" points="2210.646,1658.576 2051.638,1658.744 2050.381,1577.212 2209.543,1577.08      "/>
					<polygon style="fill:#FFFFFF;" points="2388.877,1658.387 2230.028,1658.555 2228.943,1577.064 2387.946,1576.933      "/>
					<polygon style="fill:#FFFFFF;" points="2566.928,1658.198 2408.239,1658.367 2407.327,1576.916 2566.169,1576.785      "/>
				</g>
				<g>
					<polygon style="fill:#FFFFFF;" points="2212.626,1804.872 2053.894,1805.105 2052.642,1723.856 2211.527,1723.659      "/>
					<polygon style="fill:#FFFFFF;" points="2390.548,1804.611 2231.974,1804.843 2230.894,1723.635 2389.62,1723.438      "/>
					<polygon style="fill:#FFFFFF;" points="2568.291,1804.35 2409.876,1804.582 2408.967,1723.414 2567.535,1723.217      "/>
				</g>
				<g>
					<polygon style="fill:#FFFFFF;" points="2214.6,1950.663 2056.143,1950.961 2054.895,1869.992 2213.504,1869.73      "/>
					<polygon style="fill:#FFFFFF;" points="2392.212,1950.329 2233.914,1950.627 2232.837,1869.698 2391.288,1869.436      "/>
					<polygon style="fill:#FFFFFF;" points="2569.648,1949.996 2411.508,1950.293 2410.602,1869.405 2568.895,1869.144      "/>
				</g>
				<g>
					<polygon style="fill:#FFFFFF;" points="2216.566,2095.951 2058.384,2096.313 2057.14,2015.624 2215.475,2015.297      "/>
					<polygon style="fill:#FFFFFF;" points="2393.872,2095.545 2235.847,2095.906 2234.774,2015.258 2392.951,2014.932      "/>
					<polygon style="fill:#FFFFFF;" points="2571.001,2095.14 2413.134,2095.501 2412.231,2014.892 2570.25,2014.566      "/>
				</g>
				<g>
					<polygon style="fill:#FFFFFF;" points="2218.527,2240.739 2060.618,2241.164 2059.377,2160.753 2217.438,2160.363      "/>
					<polygon style="fill:#FFFFFF;" points="2395.526,2240.262 2237.774,2240.687 2236.705,2160.315 2394.608,2159.925      "/>
					<polygon style="fill:#FFFFFF;" points="2572.349,2239.785 2414.755,2240.21 2413.854,2159.878 2571.601,2159.488      "/>
				</g>
				<g>
					<polygon style="fill:#FFFFFF;" points="2220.479,2385.028 2062.843,2385.517 2061.607,2305.382 2219.395,2304.928      "/>
					<polygon style="fill:#FFFFFF;" points="2397.174,2384.481 2239.694,2384.969 2238.628,2304.873 2396.259,2304.42      "/>
					<polygon style="fill:#FFFFFF;" points="2573.693,2383.934 2416.369,2384.421 2415.473,2304.365 2572.947,2303.912      "/>
				</g>
				<g>
					<polygon style="fill:#FFFFFF;" points="2222.426,2528.823 2065.061,2529.375 2063.83,2449.515 2221.345,2448.998      "/>
					<polygon style="fill:#FFFFFF;" points="2398.816,2528.205 2241.607,2528.755 2240.545,2448.935 2397.904,2448.419      "/>
					<polygon style="fill:#FFFFFF;" points="2575.032,2527.587 2417.979,2528.137 2417.085,2448.356 2574.288,2447.84      "/>
				</g>
			</g>
		</g>
		<g>
			
				<linearGradient id="SVGID_00000083070649679125392490000001924731168006726020_" gradientUnits="userSpaceOnUse" x1="2286.9497" y1="2166.908" x2="2850.6128" y2="2166.908">
				<stop offset="0" style="stop-color:#B37CFF"/>
				<stop offset="1" style="stop-color:#F895E7"/>
			</linearGradient>
			<path style="fill:url(#SVGID_00000083070649679125392490000001924731168006726020_);" d="M2828.567,1788.429     c-0.245-8.349-10.856-15.219-23.863-15.219h-491.627c-13.181,0-26.127,7.229-26.127,15.691v756.382     c0,4.071,3.654,7.975,8.143,10.85c4.49,2.875,11.142,4.484,17.484,4.473l514.024-0.901c6.396-0.011,12.658-1.67,17.133-4.605     c4.474-2.935,6.996-6.992,6.876-11.097L2828.567,1788.429z"/>
			<g style="opacity:0.5;">
				<g>
					<polygon style="fill:#FFFFFF;" points="2466.508,1862.34 2326.454,1862.22 2325.344,1816.131 2465.533,1816.131      "/>
					<polygon style="fill:#FFFFFF;" points="2623.493,1862.317 2483.58,1862.196 2482.621,1816.131 2622.671,1816.131      "/>
					<polygon style="fill:#FFFFFF;" points="2780.32,1862.294 2640.547,1862.173 2639.741,1816.131 2779.649,1816.131      "/>
				</g>
				<g>
					<polygon style="fill:#FFFFFF;" points="2468.259,1945.068 2328.449,1945.125 2327.342,1899.337 2467.287,1899.3      "/>
					<polygon style="fill:#FFFFFF;" points="2624.97,1945.003 2485.3,1945.061 2484.345,1899.296 2624.15,1899.259      "/>
					<polygon style="fill:#FFFFFF;" points="2781.524,1944.939 2641.995,1944.996 2641.191,1899.254 2780.856,1899.217      "/>
				</g>
				<g>
					<polygon style="fill:#FFFFFF;" points="2470.003,2027.226 2330.436,2027.321 2329.333,1981.692 2469.035,1981.618      "/>
					<polygon style="fill:#FFFFFF;" points="2626.442,2027.121 2487.015,2027.215 2486.063,1981.609 2625.625,1981.535      "/>
					<polygon style="fill:#FFFFFF;" points="2782.723,2027.016 2643.436,2027.11 2642.636,1981.526 2782.058,1981.453      "/>
				</g>
				<g>
					<polygon style="fill:#FFFFFF;" points="2471.741,2109.101 2332.417,2109.231 2331.317,2063.761 2470.776,2063.65      "/>
					<polygon style="fill:#FFFFFF;" points="2627.908,2108.955 2488.723,2109.085 2487.775,2063.637 2627.094,2063.527      "/>
					<polygon style="fill:#FFFFFF;" points="2783.919,2108.809 2644.874,2108.939 2644.076,2063.513 2783.256,2063.403      "/>
				</g>
				<g>
					<polygon style="fill:#FFFFFF;" points="2473.473,2190.693 2334.391,2190.859 2333.295,2145.545 2472.511,2145.399      "/>
					<polygon style="fill:#FFFFFF;" points="2629.37,2190.506 2490.426,2190.673 2489.481,2145.381 2628.559,2145.234      "/>
					<polygon style="fill:#FFFFFF;" points="2785.111,2190.319 2646.306,2190.486 2645.511,2145.217 2784.449,2145.07      "/>
				</g>
				<g>
					<polygon style="fill:#FFFFFF;" points="2475.199,2272.003 2336.358,2272.205 2335.265,2227.048 2474.241,2226.865      "/>
					<polygon style="fill:#FFFFFF;" points="2630.827,2271.776 2492.123,2271.978 2491.181,2226.843 2630.018,2226.66      "/>
					<polygon style="fill:#FFFFFF;" points="2786.298,2271.549 2647.733,2271.751 2646.941,2226.638 2785.639,2226.456      "/>
				</g>
				<g>
					<polygon style="fill:#FFFFFF;" points="2476.92,2353.033 2338.318,2353.271 2337.229,2308.269 2475.965,2308.051      "/>
					<polygon style="fill:#FFFFFF;" points="2632.278,2352.766 2493.814,2353.004 2492.875,2308.024 2631.472,2307.806      "/>
					<polygon style="fill:#FFFFFF;" points="2787.482,2352.499 2649.156,2352.737 2648.365,2307.779 2786.825,2307.561      "/>
				</g>
				<g>
					<polygon style="fill:#FFFFFF;" points="2478.634,2433.784 2340.271,2434.058 2339.187,2389.21 2477.682,2388.957      "/>
					<polygon style="fill:#FFFFFF;" points="2633.725,2433.478 2495.499,2433.75 2494.563,2388.925 2632.922,2388.672      "/>
					<polygon style="fill:#FFFFFF;" points="2788.661,2433.171 2650.573,2433.444 2649.786,2388.641 2788.006,2388.388      "/>
				</g>
				<g>
					<polygon style="fill:#FFFFFF;" points="2480.343,2514.259 2342.218,2514.567 2341.137,2469.874 2479.394,2469.585      "/>
					<polygon style="fill:#FFFFFF;" points="2635.166,2513.912 2497.178,2514.221 2496.246,2469.55 2634.366,2469.26      "/>
					<polygon style="fill:#FFFFFF;" points="2789.836,2513.567 2651.985,2513.875 2651.201,2469.225 2789.184,2468.937      "/>
				</g>
			</g>
		</g>
		<g>
			<g>
				
					<linearGradient id="SVGID_00000075153309407249725410000008651577336348638655_" gradientUnits="userSpaceOnUse" x1="1608.5897" y1="2001.2097" x2="5825.3765" y2="4894.4316">
					<stop offset="0" style="stop-color:#2B3582"/>
					<stop offset="1" style="stop-color:#150E42"/>
				</linearGradient>
				<path style="fill:url(#SVGID_00000075153309407249725410000008651577336348638655_);" d="M2068.737,3030.167      c-0.527,51.951-45.158,94.07-99.702,94.189l-1318.527,2.873c-54.939,0.12-100.542-41.97-101.847-94.126l-61.44-2455.85      c-1.461-58.393,44.651-105.613,102.981-105.334l1399.601,6.691c57.885,0.277,104.318,47.74,103.729,105.877L2068.737,3030.167z"/>
				
					<linearGradient id="SVGID_00000013872497253975030570000010742794523566345863_" gradientUnits="userSpaceOnUse" x1="1756.7214" y1="3095.856" x2="-28.4422" y2="-2280.2234">
					<stop offset="0" style="stop-color:#53D8FF"/>
					<stop offset="1" style="stop-color:#3840F7"/>
				</linearGradient>
				<path style="fill:url(#SVGID_00000013872497253975030570000010742794523566345863_);" d="M1949.893,726.225      c0.393-56.111-45.643-101.904-102.84-102.155l-1110.854-4.884c-57.55-0.253-103.216,45.294-101.985,101.607L679.88,2808.85      c1.119,51.144,46.351,92.446,101.017,92.359l1055.355-1.675c54.349-0.086,98.685-41.395,99.042-92.373L1949.893,726.225z"/>
				
					<linearGradient id="SVGID_00000011746260686911956990000004999512606216029826_" gradientUnits="userSpaceOnUse" x1="1301.0742" y1="156.743" x2="1294.3364" y2="567.7477">
					<stop offset="0" style="stop-color:#8D55D1"/>
					<stop offset="0.9964" style="stop-color:#1C2873"/>
				</linearGradient>
				<path style="fill:url(#SVGID_00000011746260686911956990000004999512606216029826_);" d="M1459.003,544.614      c0.029,10.887-8.727,19.668-19.557,19.62l-289.098-1.31c-10.853-0.049-19.758-8.921-19.89-19.821l0,0      c-0.131-10.907,8.57-19.713,19.436-19.662l289.427,1.351C1450.162,524.842,1458.975,533.72,1459.003,544.614L1459.003,544.614z"/>
			</g>
			<g>
				
					<linearGradient id="SVGID_00000035530444846850939010000006572861010480757949_" gradientUnits="userSpaceOnUse" x1="221.002" y1="3517.9353" x2="2260.7813" y2="-1182.431">
					<stop offset="0" style="stop-color:#B37CFF"/>
					<stop offset="1" style="stop-color:#F895E7"/>
				</linearGradient>
				<polygon style="fill:url(#SVGID_00000035530444846850939010000006572861010480757949_);" points="908.909,2207.3       742.377,2041.96 748.552,2390.78 908.552,2207.694     "/>
				
					<linearGradient id="SVGID_00000027563004950329235990000002401372258264825009_" gradientUnits="userSpaceOnUse" x1="480.0458" y1="3630.3469" x2="2519.8167" y2="-1069.9998">
					<stop offset="0" style="stop-color:#B37CFF"/>
					<stop offset="1" style="stop-color:#F895E7"/>
				</linearGradient>
				<path style="fill:url(#SVGID_00000027563004950329235990000002401372258264825009_);" d="M989.342,2287.175l-235.374,269.504      l-2.384,2.762l6.785,213.551c0.54,20.487,11.506,40.196,28.866,54.769c15.304,12.812,35.171,20.674,55.96,22.352l332.58-377.782      L989.342,2287.175z"/>
				
					<linearGradient id="SVGID_00000109016675463996531040000004629710938309101185_" gradientUnits="userSpaceOnUse" x1="863.0543" y1="3796.5613" x2="2902.8252" y2="-903.786">
					<stop offset="0" style="stop-color:#B37CFF"/>
					<stop offset="1" style="stop-color:#F895E7"/>
				</linearGradient>
				<polygon style="fill:url(#SVGID_00000109016675463996531040000004629710938309101185_);" points="989.86,2850.563       1557.121,2850.982 1254.772,2550.752     "/>
				
					<linearGradient id="SVGID_00000072260048154114488340000002178329442663885454_" gradientUnits="userSpaceOnUse" x1="1041.7555" y1="3874.1135" x2="3081.5273" y2="-826.2357">
					<stop offset="0" style="stop-color:#B37CFF"/>
					<stop offset="1" style="stop-color:#F895E7"/>
				</linearGradient>
				<path style="fill:url(#SVGID_00000072260048154114488340000002178329442663885454_);" d="M1327.659,2468.221l384.069,382.875      l35.092,0.026c23.376,0.017,46.041-7.876,63.053-22.031c17.066-14.164,27.093-33.414,27.816-53.542l15.974-431.71      l-219.523-222.543L1327.659,2468.221z"/>
				
					<linearGradient id="SVGID_00000060026036234173426100000011747114933397160357_" gradientUnits="userSpaceOnUse" x1="1013.1144" y1="3861.6829" x2="3052.8884" y2="-838.6718">
					<stop offset="0" style="stop-color:#B37CFF"/>
					<stop offset="1" style="stop-color:#F895E7"/>
				</linearGradient>
				<polygon style="fill:url(#SVGID_00000060026036234173426100000011747114933397160357_);" points="1691.368,2020.12       1708.228,2037.303 1859.051,2190.978 1871.305,1852.892 1708.364,2037.303     "/>
			</g>
			<g style="opacity:0.42;">
				<polygon style="fill:#FFFFFF;" points="908.909,2207.3 742.377,2041.96 748.552,2390.78 908.552,2207.694     "/>
				<path style="fill:#FFFFFF;" d="M989.342,2287.175l-235.374,269.504l-2.384,2.762l6.785,213.551      c0.54,20.487,11.506,40.196,28.866,54.769c15.304,12.812,35.171,20.674,55.96,22.352l332.58-377.782L989.342,2287.175z"/>
				<polygon style="fill:#FFFFFF;" points="777.063,1935.454 967.162,2124.956 1047.354,2204.917 1233.806,2390.78       1650.933,1916.906 700.617,1016.171 719.032,1825.546     "/>
				<polygon style="fill:#FFFFFF;" points="989.86,2850.563 1557.121,2850.982 1254.772,2550.752     "/>
				<path style="fill:#FFFFFF;" d="M1327.659,2468.221l384.069,382.875l35.092,0.026c23.376,0.017,46.041-7.876,63.053-22.031      c17.066-14.164,27.093-33.414,27.816-53.542l15.974-431.71l-219.523-222.543L1327.659,2468.221z"/>
				<polygon style="fill:#FFFFFF;" points="1708.228,2037.303 1859.051,2190.978 1871.305,1852.892 1708.364,2037.303     "/>
				<path style="fill:#FFFFFF;" d="M1159.855,1331.573l237.158-275.787l-321.148-332.261l-265.078-1.704      c-56.432-0.363-100.522,44.304-99.146,100.156l-0.02,82.009L1159.855,1331.573z"/>
				<polygon style="fill:#FFFFFF;" points="1679.495,731.594 1238.511,728.759 1472.677,972.034     "/>
				<polygon style="fill:#FFFFFF;" points="1478.009,1139.606 1246.809,1407.479 1716.769,1852.892 1872.104,1674.195       1872.104,1674.15 1880.203,1558.383 1880.868,1557.748     "/>
				<path style="fill:#FFFFFF;" d="M1824.657,745.938l-277.473,321.555l335.026,347.976l21.084-568.565      C1905.156,797.51,1871.307,755.823,1824.657,745.938z"/>
			</g>
		</g>
		<g>
			<g>
				
					<linearGradient id="SVGID_00000091695976437838242790000001440307220321095812_" gradientUnits="userSpaceOnUse" x1="-2123.5847" y1="1645.7318" x2="-2027.1534" y2="1887.6277" gradientTransform="matrix(-1 0 0 1 -1165.4333 0)">
					<stop offset="0" style="stop-color:#2B3582"/>
					<stop offset="1" style="stop-color:#150E42"/>
				</linearGradient>
				<path style="fill:url(#SVGID_00000091695976437838242790000001440307220321095812_);" d="M900.973,1775.852      c0,0-32.51,15.813-38.487,33.978c-4.796,14.575-40.743,16.454-44.294,45.119c-1.833,14.8-12.785,26.652-27.526,28.912      c-36.714,5.627-93.293,24.692-102.345,88.435c-6.91,48.654,17.893,67.103,43.924,73.489      c19.119,4.69,31.824,23.286,27.957,42.588c-3.709,18.513,1.822,39.916,33.895,56.84      c71.874,37.925,143.651-89.848,143.651-89.848l14.71-223.1L900.973,1775.852z"/>
				
					<linearGradient id="SVGID_00000018228695998017140190000014444285979615871662_" gradientUnits="userSpaceOnUse" x1="1077.4343" y1="1977.1265" x2="1454.296" y2="1485.113">
					<stop offset="0" style="stop-color:#F9B776"/>
					<stop offset="1" style="stop-color:#F47960"/>
				</linearGradient>
				<path style="fill:url(#SVGID_00000018228695998017140190000014444285979615871662_);" d="M1292.059,1722.962      c0,0-143.505,226.986-314.151,270.829c0,0,33.251,94.704,58.915,105.543c0,0,209.942-175.172,263.894-344.118L1292.059,1722.962      z"/>
				
					<linearGradient id="SVGID_00000106861849417471034670000011973758520209328830_" gradientUnits="userSpaceOnUse" x1="-1771.0732" y1="3194.3745" x2="-1689.3031" y2="3194.3745" gradientTransform="matrix(-1 0 0 1 -1165.4333 0)">
					<stop offset="0" style="stop-color:#CE1567"/>
					<stop offset="1" style="stop-color:#7A1DBC"/>
				</linearGradient>
				<path style="fill:url(#SVGID_00000106861849417471034670000011973758520209328830_);" d="M605.542,3174.764l-4.651,38.235      c-0.882,7.254-6.593,12.989-13.853,13.818c-12.257,1.4-31.927,2.835-51.172,0.801c-8.447-0.893-13.931-9.447-11.358-17.542      c4.691-14.76,13.274-36.917,25.649-49.957h42.415C600.414,3160.119,606.489,3166.979,605.542,3174.764z"/>
				
					<linearGradient id="SVGID_00000081634576384948064100000010433496092773649298_" gradientUnits="userSpaceOnUse" x1="-2116.5938" y1="3516.8306" x2="-1998.9207" y2="2141.5266" gradientTransform="matrix(-1 0 0 1 -1165.4333 0)">
					<stop offset="0" style="stop-color:#F9B776"/>
					<stop offset="1" style="stop-color:#F47960"/>
				</linearGradient>
				<path style="fill:url(#SVGID_00000081634576384948064100000010433496092773649298_);" d="M937.748,2726.864l7.159,42.112      c0,0-23.974,242.835-28.238,339.968c-0.668,15.229,3.271,30.278,11.264,43.258l41.687,67.695l-105.945-62.517l-2.109-12.929      l17.343-23.846l-22.717-272.035c-1.335-15.981,1.963-32.008,9.498-46.164l21.914-41.168L937.748,2726.864z"/>
				
					<linearGradient id="SVGID_00000034057212166372092370000008678914768547401890_" gradientUnits="userSpaceOnUse" x1="-2150.9697" y1="3179.4453" x2="-2018.6594" y2="3179.4453" gradientTransform="matrix(-1 0 0 1 -1165.4333 0)">
					<stop offset="0" style="stop-color:#CE1567"/>
					<stop offset="1" style="stop-color:#7A1DBC"/>
				</linearGradient>
				<path style="fill:url(#SVGID_00000034057212166372092370000008678914768547401890_);" d="M976.596,3229.704h-33.809      c-6.328,0-12.297-2.906-16.156-7.92c-10.54-13.695-32.377-40.415-42.819-41.113c-14.056-0.939-12.258,49.033-12.258,49.033      h-7.879l-9.98-62.096c-2.511-15.624,5.259-31.101,19.288-38.422c0,0,3.213,23.763,20.636,34.274      c17.423,10.511,70.9,48.153,70.9,48.153s6.55-0.934,13.741,0.366C988.927,3213.907,987.437,3229.704,976.596,3229.704z"/>
				
					<linearGradient id="SVGID_00000055681173792253892130000009322418443337288607_" gradientUnits="userSpaceOnUse" x1="-1879.8872" y1="3537.2944" x2="-1762.1832" y2="2161.6287" gradientTransform="matrix(-1 0 0 1 -1165.4333 0)">
					<stop offset="0" style="stop-color:#F9B776"/>
					<stop offset="1" style="stop-color:#F47960"/>
				</linearGradient>
				<path style="fill:url(#SVGID_00000055681173792253892130000009322418443337288607_);" d="M792.638,2746.866      c0,0-140.446,266.412-162.772,327.238c-22.326,60.826-30.146,111.569-30.446,116.374c-0.468,7.508-9.807,14.71-35.549,14.71      c-13.285,0-19.791-5.325-22.977-10.48c-2.718-4.398-2.858-9.9-0.568-14.535c8.124-16.442,33.906-68.984,43.454-92.815      c11.401-28.453,35.923-157.398,49.372-202.231s28.651-93.465,87.218-138.26C720.37,2746.866,760.574,2707.488,792.638,2746.866z      "/>
				
					<linearGradient id="SVGID_00000048486196841055489370000002655683315980291980_" gradientUnits="userSpaceOnUse" x1="-2113.6868" y1="2129.9214" x2="-2054.8477" y2="2675.8215" gradientTransform="matrix(-1 0 0 1 -1165.4333 0)">
					<stop offset="0" style="stop-color:#FDF53F"/>
					<stop offset="1" style="stop-color:#D93C65"/>
				</linearGradient>
				<path style="fill:url(#SVGID_00000048486196841055489370000002655683315980291980_);" d="M881.36,2310.336      c36.229-153.515-55.549-240.342-55.549-240.342c57.91-55.587,163.422-80.882,163.422-80.882s100.681,73.607,88.737,131.221      c-7,33.768-70.769,202.261-70.769,202.261S948.234,2350.501,881.36,2310.336z"/>
				
					<linearGradient id="SVGID_00000090986082870168855020000008552676031542516369_" gradientUnits="userSpaceOnUse" x1="1099.0782" y1="2307.6738" x2="540.7656" y2="2963.6914">
					<stop offset="0" style="stop-color:#CE1567"/>
					<stop offset="1" style="stop-color:#7A1DBC"/>
				</linearGradient>
				<path style="fill:url(#SVGID_00000090986082870168855020000008552676031542516369_);" d="M801.036,2386.337      c14.744-44.417,80.324-76.001,80.324-76.001c66.874,40.165,125.841,12.258,125.841,12.258s13.224,50.546,4.097,97.52      c-9.127,46.974-66.39,348.862-66.39,348.862c-90.228,18.282-228.996-18.394-228.996-18.394      C773.383,2648.546,786.292,2430.754,801.036,2386.337z"/>
				
					<linearGradient id="SVGID_00000165210841528068391980000012217934161733966987_" gradientUnits="userSpaceOnUse" x1="-2129.4985" y1="2161.1926" x2="-2107.394" y2="1999.4816" gradientTransform="matrix(-1 0 0 1 -1165.4333 0)">
					<stop offset="0" style="stop-color:#F9B776"/>
					<stop offset="1" style="stop-color:#F47960"/>
				</linearGradient>
				<path style="fill:url(#SVGID_00000165210841528068391980000012217934161733966987_);" d="M923.412,1887.664l-29.455,132.304      c-2.82,11.654,7.804,9.747,19.586,7.525c19.295-3.638,44.164-11.13,52.477-26.144c0.846-1.528,1.269-3.255,1.507-4.986      l12.654-91.743c1.004-7.279-2.931-14.343-9.648-17.321l-24.419-10.828C936.714,1872.303,925.831,1877.668,923.412,1887.664z"/>
				
					<linearGradient id="SVGID_00000100373796651549598260000011624148823339086251_" gradientUnits="userSpaceOnUse" x1="506.5665" y1="2314.8674" x2="1005.6339" y2="2106.0886">
					<stop offset="0" style="stop-color:#F9B776"/>
					<stop offset="1" style="stop-color:#F47960"/>
				</linearGradient>
				<path style="fill:url(#SVGID_00000100373796651549598260000011624148823339086251_);" d="M825.811,2069.994      c0,0-284.301,281.435,128.007,169.093c0,0,4.702-35.575-1.435-34.963c-133.703,13.339-189.626,43.95-80.939-61.44      c3.843-3.726,2.655-17.791,0.184-22.538C864.102,2105.688,846.89,2076.979,825.811,2069.994z"/>
				<g>
					
						<linearGradient id="SVGID_00000116932147781989141140000009843260488401970615_" gradientUnits="userSpaceOnUse" x1="-2304.2717" y1="1649.4711" x2="-2111.4006" y2="1306.2256" gradientTransform="matrix(-0.9809 -0.1943 -0.1943 0.9809 -936.3432 -99.2406)">
						<stop offset="0" style="stop-color:#F9B776"/>
						<stop offset="1" style="stop-color:#F47960"/>
					</linearGradient>
					<path style="fill:url(#SVGID_00000116932147781989141140000009843260488401970615_);" d="M979.83,1767.055       c0,0,31.358,21.227,44.832,75.283c13.474,54.056-8.423,73.447-30.869,72.258c-22.446-1.188-54.991-8.13-83.189-46.91       C882.405,1828.906,938.738,1741.117,979.83,1767.055z"/>
					
						<linearGradient id="SVGID_00000175283352511290739130000011760250357618473382_" gradientUnits="userSpaceOnUse" x1="-2262.7932" y1="1350.5588" x2="-2166.3579" y2="1592.4647" gradientTransform="matrix(-0.9809 -0.1943 -0.1943 0.9809 -936.3432 -99.2406)">
						<stop offset="0" style="stop-color:#2B3582"/>
						<stop offset="1" style="stop-color:#150E42"/>
					</linearGradient>
					<path style="fill:url(#SVGID_00000175283352511290739130000011760250357618473382_);" d="M939.04,1845.883       c0,0-11.49-77.458,52.82-65.61l13.004,13.538c0,0,31.478-35.449-3.357-62.246c-34.835-26.797-83.174-19.935-109.918,28.85       c-26.744,48.784-36.45,83.064-14.034,113.378c22.416,30.314,39.278,4.315,39.278,4.315s-10.28-26.237-1.75-37.495       c8.53-11.258,19.535,6.547,19.535,6.547L939.04,1845.883z"/>
					
						<linearGradient id="SVGID_00000120555410671262495500000015567998210474085253_" gradientUnits="userSpaceOnUse" x1="-2267.3186" y1="1675.2876" x2="-2074.4478" y2="1332.0421" gradientTransform="matrix(-0.9809 -0.1943 -0.1943 0.9809 -936.3432 -99.2406)">
						<stop offset="0" style="stop-color:#F9B776"/>
						<stop offset="1" style="stop-color:#F47960"/>
					</linearGradient>
					<path style="fill:url(#SVGID_00000120555410671262495500000015567998210474085253_);" d="M933.74,1856.006       c0,0-5.673-39.852-26.026-28.459c-20.353,11.392,7.335,37.227,18.437,46.017L933.74,1856.006z"/>
				</g>
				<g>
					
						<linearGradient id="SVGID_00000067211459510617055380000005810578328531195563_" gradientUnits="userSpaceOnUse" x1="1101.1417" y1="1995.2864" x2="1478.0031" y2="1503.2733">
						<stop offset="0" style="stop-color:#F9B776"/>
						<stop offset="1" style="stop-color:#F47960"/>
					</linearGradient>
					<path style="fill:url(#SVGID_00000067211459510617055380000005810578328531195563_);" d="M1291.073,1769.691       c0.435,4.682-16.977,7.918-22.518-12.042c1.523-8.666,4.229-46.616,10.873-52.512c35.39-31.401,98.496-66.725,98.496-66.725       c7.058,10.775-2.198,17.873-2.198,17.873l-31.501,21.259c3.286,10.884,8.082,20.506,8.624,32.932       c0.411,9.41-3.065,18.622-9.311,25.76c-6.269,7.163-14.709,16.412-22.317,23.434       C1306.82,1772.96,1291.073,1769.691,1291.073,1769.691z"/>
					
						<linearGradient id="SVGID_00000005256437719707048180000015594025591444892832_" gradientUnits="userSpaceOnUse" x1="1300.0548" y1="1761.1783" x2="1177.9241" y2="2275.8733">
						<stop offset="0" style="stop-color:#F9B776"/>
						<stop offset="1" style="stop-color:#F47960"/>
					</linearGradient>
					<path style="fill:url(#SVGID_00000005256437719707048180000015594025591444892832_);" d="M1308.184,1754.221l-4.815-1.981       c0.64-1.558,15.757-38.292,23.068-45.934c2.779-2.899,4.12-5.382,3.996-7.383c-0.062-1.083-0.598-2.153-1.616-3.243       l-25.489,13.632l-11.259,17.628l-4.388-2.806l11.988-18.776l29.857-15.963l1.348,1.097c3.019,2.469,4.581,5.12,4.759,8.112       c0.22,3.563-1.554,7.259-5.427,11.307C1324.698,1715.664,1312.442,1743.845,1308.184,1754.221z"/>
				</g>
			</g>
			<g>
				
					<linearGradient id="SVGID_00000093889546724258890160000017258860143432824210_" gradientUnits="userSpaceOnUse" x1="1052.8918" y1="2067.5122" x2="1168.4536" y2="2549.0208">
					<stop offset="0" style="stop-color:#2B3582"/>
					<stop offset="1" style="stop-color:#150E42"/>
				</linearGradient>
				<path style="fill:url(#SVGID_00000093889546724258890160000017258860143432824210_);" d="M966.573,2265.46l49.146-171.627      c0.558-1.948,2.22-3.369,4.233-3.604c8.904-1.039,34.706-3.955,64.496-6.475c35.883-3.035,77.554-5.494,102.455-3.402      c3.54,0.297,5.679,4.042,4.105,7.226c-14.16,28.648-72.407,145.183-101.576,183.358c-0.966,1.265-2.461,2.004-4.052,1.989      l-114.026-1.061C968.036,2271.833,965.659,2268.65,966.573,2265.46z"/>
				
					<linearGradient id="SVGID_00000023244307350564919950000005749481611676210567_" gradientUnits="userSpaceOnUse" x1="947.1801" y1="2198.3491" x2="1038.8451" y2="2198.3491">
					<stop offset="0" style="stop-color:#F9B776"/>
					<stop offset="1" style="stop-color:#F47960"/>
				</linearGradient>
				<path style="fill:url(#SVGID_00000023244307350564919950000005749481611676210567_);" d="M953.817,2239.087      c0,0-9.584-39.411-5.718-53.393c3.866-13.982,11.357-31.96,36.325-27.965c24.969,3.995,54.421,14.513,54.421,14.513      s-1.488,18.213-20.464,12.337l11.767,9.105c0,0-1.682,14.583-17.711,6.792l10.945,12.075c0,0-6.884,11.977-18.676,4.295      S987.26,2243.833,953.817,2239.087z"/>
			</g>
		</g>
		<g>
			<g>
				<g>
					
						<linearGradient id="SVGID_00000139293569069749602700000003156280201009499569_" gradientUnits="userSpaceOnUse" x1="1228.8125" y1="1129.6736" x2="1661.0006" y2="1129.6736">
						<stop offset="0" style="stop-color:#FDF53F"/>
						<stop offset="1" style="stop-color:#D93C65"/>
					</linearGradient>
					
						<circle style="fill:url(#SVGID_00000139293569069749602700000003156280201009499569_);" cx="1444.907" cy="1129.673" r="216.094"/>
					
						<linearGradient id="SVGID_00000180359948282291064270000008131670559599682720_" gradientUnits="userSpaceOnUse" x1="1228.4182" y1="1351.0867" x2="1661.0223" y2="1351.0867">
						<stop offset="0" style="stop-color:#FDF53F"/>
						<stop offset="1" style="stop-color:#D93C65"/>
					</linearGradient>
					<path style="fill:url(#SVGID_00000180359948282291064270000008131670559599682720_);" d="M1660.606,1113.788h-215.699h-216.094       c0,0-17.203,122.092,175.657,450.615c8.414,14.334,23.789,23.974,40.41,23.982c16.621,0.008,32.023-10.027,40.437-24.361       C1678.158,1235.473,1660.606,1113.788,1660.606,1113.788z"/>
				</g>
				<g>
					<path style="fill:#FFFFFF;" d="M1447.192,1596.472v0.194h-2.315c-18.81,0-36.366-9.838-45.818-25.937       c-112.733-192.033-154.042-313.199-168.839-381.141c-4.219-15.629-6.643-30.823-7.409-46.531       c-1.306-16.069-0.307-22.775-0.189-23.49l0.568-3.425c8.707-116.078,105.315-206.4,221.716-206.4       c117.93,0,215.41,91.626,222.001,208.628c0.165,1.531,0.482,5.419,0.357,11.916l0.01,0.799c0,21.224-2.999,42.248-8.912,62.487       c-15.308,67.883-55.679,188.107-166.491,376.901C1482.36,1586.677,1467.173,1596.472,1447.192,1596.472z M1234.71,1123.779       c-0.052,0,0.047,9.883,0.616,16.851l0.014,0.985c0.718,14.881,3.018,29.714,7.034,44.547l0.074,0.501       c14.577,67.02,55.456,187.048,167.434,377.793c7.209,12.28,21.765,19.96,36.147,19.967l1.165,6.322v-6.273       c6.66,0.001,28.573-7.693,35.842-20.076c110.101-187.585,150.649-306.798,167.3-373.774v-0.387       c3.33-19.151,5.901-39.052,5.901-59.149l-2.571-0.883v-0.071c0-6.255,0.329-9.638,0.228-10.526l0.233-0.363       c-6.135-110.438-98.018-196.949-209.35-196.949c-111.119,0-203.058,85.714-209.393,197.121l-0.271,4.364H1234.71z"/>
				</g>
				<circle style="opacity:0.8;fill:#FFFFFF;" cx="1445.604" cy="1128.977" r="124.777"/>
				<g>
					
						<linearGradient id="SVGID_00000005254987652452639660000014247599203343901630_" gradientUnits="userSpaceOnUse" x1="1445.6035" y1="628.9389" x2="1445.6035" y2="1241.8553">
						<stop offset="0" style="stop-color:#FDF53F"/>
						<stop offset="1" style="stop-color:#D93C65"/>
					</linearGradient>
					<path style="fill:url(#SVGID_00000005254987652452639660000014247599203343901630_);" d="M1445.604,1260.724       c-72.646,0-131.748-59.102-131.748-131.748c0-72.646,59.102-131.748,131.748-131.748s131.748,59.102,131.748,131.748       C1577.351,1201.623,1518.25,1260.724,1445.604,1260.724z M1445.604,1011.171c-64.958,0-117.806,52.848-117.806,117.806       s52.848,117.806,117.806,117.806c64.958,0,117.806-52.848,117.806-117.806S1510.562,1011.171,1445.604,1011.171z"/>
				</g>
			</g>
			<g>
				<path style="fill:#FFFFFF;" d="M1323.91,992.404c-0.588,0-1.174-0.247-1.588-0.728c-0.752-0.876-0.652-2.196,0.225-2.949      c35.053-30.104,79.837-46.683,126.104-46.683c1.155,0,2.091,0.936,2.091,2.091c0,1.155-0.936,2.092-2.091,2.092      c-45.268,0-89.085,16.22-123.38,45.673C1324.877,992.238,1324.393,992.404,1323.91,992.404z"/>
			</g>
			<g>
				<path style="fill:#FFFFFF;" d="M1257.094,1137.783c-1.156,0-2.091-0.936-2.091-2.091c0-36.133,10.017-71.382,28.968-101.934      c0.61-0.983,1.899-1.284,2.88-0.675c0.982,0.609,1.284,1.898,0.676,2.88c-18.542,29.89-28.342,64.377-28.342,99.73      C1259.185,1136.847,1258.249,1137.783,1257.094,1137.783z"/>
			</g>
			
				<linearGradient id="SVGID_00000169543532466571295980000010380158621350580868_" gradientUnits="userSpaceOnUse" x1="1448.4878" y1="1310.9161" x2="1440.1626" y2="1648.9303">
				<stop offset="0" style="stop-color:#FDF53F"/>
				<stop offset="1" style="stop-color:#D93C65"/>
			</linearGradient>
			
				<circle style="fill:url(#SVGID_00000169543532466571295980000010380158621350580868_);" cx="1440.017" cy="1654.822" r="36.118"/>
		</g>
		<g>
			
				<linearGradient id="SVGID_00000037653055018938455850000014330423225386576054_" gradientUnits="userSpaceOnUse" x1="-585.5742" y1="2420.1902" x2="-584.3618" y2="2574.7673" gradientTransform="matrix(-1 0 0 1 1574 0)">
				<stop offset="0" style="stop-color:#FDF53F"/>
				<stop offset="1" style="stop-color:#D93C65"/>
			</linearGradient>
			<path style="fill:url(#SVGID_00000037653055018938455850000014330423225386576054_);" d="M1617.835,2471.196     c11.594-13.582,28.557-22.002,46.415-22.002h996.419c23.481,0,44.879,14.07,55.03,35.243l21.928,46.04l-1157.72-14.701     L1617.835,2471.196z"/>
			
				<linearGradient id="SVGID_00000128477280942855324990000005296066942360575116_" gradientUnits="userSpaceOnUse" x1="-704.6151" y1="2525.4736" x2="-638.6433" y2="3764.7966" gradientTransform="matrix(-1 0 0 1 1574 0)">
				<stop offset="0" style="stop-color:#FDF53F"/>
				<stop offset="1" style="stop-color:#D93C65"/>
			</linearGradient>
			<path style="fill:url(#SVGID_00000128477280942855324990000005296066942360575116_);" d="M1405.499,2575.393     c1.446-47.251,40.168-89.567,87.44-89.567h1441.084c39.507,0,74.112,31.241,84.439,69.375l107.747,400.214l-9.89,129.977     c-1.668,21.681-19.747,39.83-41.493,39.83H1445.699c-14.922,0-29.206-6.262-39.595-16.972     c-10.388-10.712-15.994-27.664-15.537-42.578L1405.499,2575.393z"/>
			<path style="fill:#FFFFFF;" d="M2739.305,2587.46c0-32.221-26.12-58.342-58.341-58.342h-302.923     c-32.22,0-58.34,26.121-58.34,58.342v193.023c0,32.221,26.12,58.342,58.34,58.342h302.923c32.221,0,58.341-26.121,58.341-58.342     V2587.46z"/>
			<path style="fill:#FFFFFF;" d="M2293.06,2587.46c0-32.221-26.12-58.342-58.341-58.342h-302.923     c-32.221,0-58.34,26.121-58.34,58.342v193.023c0,32.221,26.12,58.342,58.34,58.342h302.923c32.221,0,58.341-26.121,58.341-58.342     V2587.46z"/>
			<path style="fill:#FFFFFF;" d="M1843.485,2587.46c0-32.221-26.12-58.342-58.34-58.342h-302.923     c-32.22,0-58.34,26.121-58.34,58.342v193.023c0,32.221,26.12,58.342,58.34,58.342h302.923c32.221,0,58.34-26.121,58.34-58.342     V2587.46z"/>
			<path style="fill:#FFFFFF;" d="M3027.36,2878.685c10.053,0,19.719-4.612,26.516-12.652c8.046-9.519,11.232-22.708,8.524-35.281     l-44.259-205.148c-3.826-17.756-18.235-29.882-35.042-29.882h-171.918c-26.488,0-48.564,22.831-48.564,51.57v145.255     c0,25.732,17.963,47.907,41.434,51.586l218.031,34.15C3023.781,2878.549,3025.644,2878.685,3027.36,2878.685z"/>
			
				<linearGradient id="SVGID_00000118365456105068268360000014536788250610298287_" gradientUnits="userSpaceOnUse" x1="2545.981" y1="2182.0088" x2="2509.3484" y2="3041.1965">
				<stop offset="0" style="stop-color:#FDF53F"/>
				<stop offset="1" style="stop-color:#D93C65"/>
			</linearGradient>
			<path style="fill:url(#SVGID_00000118365456105068268360000014536788250610298287_);" d="M2722.654,2783.459     c0,26.9-21.807,48.706-48.707,48.706h-298.879c-26.9,0-48.707-21.807-48.707-48.706v-195.644c0-26.9,21.807-48.706,48.707-48.706     h298.879c26.9,0,48.707,21.806,48.707,48.706V2783.459z"/>
			
				<linearGradient id="SVGID_00000094577394010359121020000016404619609792418978_" gradientUnits="userSpaceOnUse" x1="2103.8696" y1="2163.1604" x2="2067.2371" y2="3022.3481">
				<stop offset="0" style="stop-color:#FDF53F"/>
				<stop offset="1" style="stop-color:#D93C65"/>
			</linearGradient>
			<path style="fill:url(#SVGID_00000094577394010359121020000016404619609792418978_);" d="M2279.739,2783.459     c0,26.9-21.807,48.706-48.707,48.706h-298.879c-26.9,0-48.707-21.807-48.707-48.706v-195.644c0-26.9,21.807-48.706,48.707-48.706     h298.879c26.9,0,48.707,21.806,48.707,48.706V2783.459z"/>
			
				<linearGradient id="SVGID_00000158716737511653748160000004420907664389328803_" gradientUnits="userSpaceOnUse" x1="1665.0823" y1="2144.4526" x2="1628.4497" y2="3003.6404">
				<stop offset="0" style="stop-color:#FDF53F"/>
				<stop offset="1" style="stop-color:#D93C65"/>
			</linearGradient>
			<path style="fill:url(#SVGID_00000158716737511653748160000004420907664389328803_);" d="M1840.154,2783.459     c0,26.9-21.807,48.706-48.707,48.706h-298.879c-26.9,0-48.707-21.807-48.707-48.706v-195.644c0-26.9,21.807-48.706,48.707-48.706     h298.879c26.9,0,48.707,21.806,48.707,48.706V2783.459z"/>
			
				<linearGradient id="SVGID_00000170236182785309286020000008749209121942063022_" gradientUnits="userSpaceOnUse" x1="2938.0222" y1="2198.7241" x2="2901.3894" y2="3057.9141">
				<stop offset="0" style="stop-color:#FDF53F"/>
				<stop offset="1" style="stop-color:#D93C65"/>
			</linearGradient>
			<path style="fill:url(#SVGID_00000170236182785309286020000008749209121942063022_);" d="M2811.182,2602.383H2983.1     c12.243,0,22.873,10.77,25.66,23.706l44.258,206.231c1.982,9.201-0.353,19.277-6.241,26.241     c-5.888,6.964-14.566,10.524-23.187,9.174l-216.319-34.048c-18.893-2.961-31.334-20.427-31.334-41.138v-145.254     C2775.938,2624.282,2789.972,2602.383,2811.182,2602.383z"/>
			
				<linearGradient id="SVGID_00000069380698793793600940000015808383443273245869_" gradientUnits="userSpaceOnUse" x1="1963.8033" y1="2599.7131" x2="1237.8225" y2="3209.1382">
				<stop offset="0" style="stop-color:#CE1567"/>
				<stop offset="1" style="stop-color:#7A1DBC"/>
			</linearGradient>
			<path style="fill:url(#SVGID_00000069380698793793600940000015808383443273245869_);" d="M1388.024,2982.024h42.685     c21.21,0,36.464,18.657,36.464,39.867v87.645c0,15.52-10.642,22.347-26.161,22.347h-36.931c-15.519,0-26.823-6.827-26.823-22.347     V2995.53C1377.258,2988.879,1381.373,2982.024,1388.024,2982.024z"/>
			<path style="fill:#FFFFFF;" d="M1683.636,2992.015h-203.141c-2.76,0-4.995-2.238-4.995-4.995s2.236-4.995,4.995-4.995h203.141     c2.759,0,4.995,2.238,4.995,4.995S1686.395,2992.015,1683.636,2992.015z"/>
			<path style="fill:#FFFFFF;" d="M2649.39,2992.015H1936.73c-2.759,0-4.995-2.238-4.995-4.995s2.236-4.995,4.995-4.995h712.661     c2.759,0,4.995,2.238,4.995,4.995S2652.15,2992.015,2649.39,2992.015z"/>
			<path style="fill:#FFFFFF;" d="M3045.683,2992.015h-153.189c-2.759,0-4.995-2.238-4.995-4.995s2.236-4.995,4.995-4.995h153.189     c2.76,0,4.995,2.238,4.995,4.995S3048.442,2992.015,3045.683,2992.015z"/>
			<path style="fill:#FFFFFF;" d="M2594.442,3101.911H2371.32c-2.76,0-4.995-2.238-4.995-4.995v-83.255     c0-2.758,2.236-4.995,4.995-4.995h223.123c2.76,0,4.995,2.238,4.995,4.995v83.255     C2599.438,3099.673,2597.202,3101.911,2594.442,3101.911z M2376.315,3091.92h213.132v-73.264h-213.132V3091.92z"/>
			<path style="fill:#FFFFFF;" d="M2218.131,3091.92h-89.915c-2.76,0-4.995-2.238-4.995-4.995v-59.943     c0-2.758,2.236-4.995,4.995-4.995h89.915c2.76,0,4.995,2.237,4.995,4.995v59.943     C2223.126,3089.683,2220.89,3091.92,2218.131,3091.92z M2133.211,3081.93h79.925v-49.953h-79.925V3081.93z"/>
			<path style="fill:#FFFFFF;" d="M2760.952,2957.048c-2.76,0-4.995-2.238-4.995-4.995v-116.557c0-2.758,2.236-4.995,4.995-4.995     c2.759,0,4.995,2.237,4.995,4.995v116.557C2765.947,2954.81,2763.711,2957.048,2760.952,2957.048z"/>
			
				<linearGradient id="SVGID_00000063625820668570349040000015862323500164722851_" gradientUnits="userSpaceOnUse" x1="3324.5269" y1="2222.8433" x2="2908.0879" y2="2838.7034">
				<stop offset="0" style="stop-color:#FDF53F"/>
				<stop offset="1" style="stop-color:#D93C65"/>
			</linearGradient>
			<path style="fill:url(#SVGID_00000063625820668570349040000015862323500164722851_);" d="M2965.806,2562.565     c1.782-7.639,8.593-13.466,16.437-13.466h104.015c8.855,0,17.069,5.041,21.671,12.605l55.748,91.864l-29.974,14.022     l-36.586-71.288c-3.837-7.483-11.484-12.216-19.891-12.354l-96.289-1.579c-4.777-0.079-9.262-2.519-12.2-6.286     C2965.798,2572.316,2964.721,2567.218,2965.806,2562.565z"/>
			
				<linearGradient id="SVGID_00000011715680158917637060000015582103541532301734_" gradientUnits="userSpaceOnUse" x1="3409.8916" y1="2278.2563" x2="2991.2661" y2="2897.3501">
				<stop offset="0" style="stop-color:#FDF53F"/>
				<stop offset="1" style="stop-color:#D93C65"/>
			</linearGradient>
			<path style="fill:url(#SVGID_00000011715680158917637060000015582103541532301734_);" d="M3168.9,2648.858     c0-14.632-11.862-26.494-26.494-26.494h-6.955c-14.633,0-26.494,11.862-26.494,26.494v60.238     c0,14.632,11.862,26.494,26.494,26.494h6.955c14.632,0,26.494-11.862,26.494-26.494V2648.858z"/>
			
				<linearGradient id="SVGID_00000054962758330810739950000017986104062031513216_" gradientUnits="userSpaceOnUse" x1="-909.2963" y1="1881.5155" x2="-1708.6227" y2="3300.3171" gradientTransform="matrix(-1 0 0 1 1574 0)">
				<stop offset="0" style="stop-color:#CE1567"/>
				<stop offset="1" style="stop-color:#7A1DBC"/>
			</linearGradient>
			<path style="fill:url(#SVGID_00000054962758330810739950000017986104062031513216_);" d="M3083.689,2960.683     c3.115-3.164,7.44-4.836,11.873-4.59l30.648,1.703l-6.949,90.332l-14.825-10.331c-13.649-9.512-22.268-24.682-23.449-41.277     l-1.702-23.894C3078.97,2968.197,3080.574,2963.846,3083.689,2960.683z"/>
			
				<linearGradient id="SVGID_00000113322147362321055490000007258751715500048829_" gradientUnits="userSpaceOnUse" x1="-846.6528" y1="1916.8031" x2="-1645.98" y2="3335.6062" gradientTransform="matrix(-1 0 0 1 1574 0)">
				<stop offset="0" style="stop-color:#CE1567"/>
				<stop offset="1" style="stop-color:#7A1DBC"/>
			</linearGradient>
			<path style="fill:url(#SVGID_00000113322147362321055490000007258751715500048829_);" d="M3044.854,3055.288h66.102     c15.519,0,27.972,8.22,27.972,23.74v24.086c0,15.519-12.453,25.439-27.972,25.439h-66.102c-6.503,0-12.491-2.611-12.491-9.115     v-56.736C3032.362,3056.199,3038.35,3055.288,3044.854,3055.288z"/>
			<g>
				<g>
					
						<linearGradient id="SVGID_00000017490142925264598810000007363653673693521338_" gradientUnits="userSpaceOnUse" x1="-1332.4642" y1="3101.9021" x2="-1079.5819" y2="3101.9021" gradientTransform="matrix(-1 0 0 1 1574 0)">
						<stop offset="0" style="stop-color:#2B3582"/>
						<stop offset="1" style="stop-color:#150E42"/>
					</linearGradient>
					
						<circle style="fill:url(#SVGID_00000017490142925264598810000007363653673693521338_);" cx="2780.023" cy="3101.902" r="126.441"/>
					
						<linearGradient id="SVGID_00000169556198537810282960000000951116710809005758_" gradientUnits="userSpaceOnUse" x1="-1206.0236" y1="2941.1328" x2="-1206.0236" y2="3375.376" gradientTransform="matrix(-1 0 0 1 1574 0)">
						<stop offset="0" style="stop-color:#CE1567"/>
						<stop offset="1" style="stop-color:#7A1DBC"/>
					</linearGradient>
					
						<circle style="fill:url(#SVGID_00000169556198537810282960000000951116710809005758_);" cx="2780.023" cy="3101.902" r="102.684"/>
					<path style="fill:#FFFFFF;" d="M2693.774,3140.621c-1.297,0-2.532-0.761-3.068-2.033c-4.916-11.623-7.407-23.965-7.407-36.688       c0-51.966,42.278-94.244,94.244-94.244c16.119,0,32.029,4.14,46.008,11.978c1.605,0.897,2.177,2.927,1.278,4.533       c-0.901,1.606-2.93,2.179-4.533,1.275c-12.987-7.278-27.772-11.126-42.752-11.126c-48.294,0-87.583,39.289-87.583,87.583       c0,11.825,2.316,23.295,6.88,34.092c0.717,1.694-0.077,3.649-1.769,4.364       C2694.646,3140.536,2694.206,3140.621,2693.774,3140.621z"/>
				</g>
				
					<linearGradient id="SVGID_00000176726385408286718190000012710900477938365882_" gradientUnits="userSpaceOnUse" x1="-1160.5969" y1="3025.8655" x2="-1289.129" y2="3236.4604" gradientTransform="matrix(-1 0 0 1 1574 0)">
					<stop offset="0" style="stop-color:#2B3582"/>
					<stop offset="1" style="stop-color:#150E42"/>
				</linearGradient>
				<path style="fill:url(#SVGID_00000176726385408286718190000012710900477938365882_);" d="M2733.913,3101.902      c0,26.008,21.083,47.092,47.091,47.092s47.092-21.084,47.092-47.092c0-26.008-21.084-47.091-47.092-47.091      S2733.913,3075.894,2733.913,3101.902z"/>
			</g>
			<g>
				<g>
					
						<linearGradient id="SVGID_00000118397783575513551610000012579055440762883227_" gradientUnits="userSpaceOnUse" x1="-330.4986" y1="3101.9021" x2="-77.6162" y2="3101.9021" gradientTransform="matrix(-1 0 0 1 1574 0)">
						<stop offset="0" style="stop-color:#2B3582"/>
						<stop offset="1" style="stop-color:#150E42"/>
					</linearGradient>
					
						<circle style="fill:url(#SVGID_00000118397783575513551610000012579055440762883227_);" cx="1778.057" cy="3101.902" r="126.441"/>
					
						<linearGradient id="SVGID_00000118391375506585031130000016439639789677759621_" gradientUnits="userSpaceOnUse" x1="-204.0576" y1="2941.1328" x2="-204.0576" y2="3375.376" gradientTransform="matrix(-1 0 0 1 1574 0)">
						<stop offset="0" style="stop-color:#CE1567"/>
						<stop offset="1" style="stop-color:#7A1DBC"/>
					</linearGradient>
					
						<circle style="fill:url(#SVGID_00000118391375506585031130000016439639789677759621_);" cx="1778.058" cy="3101.902" r="102.684"/>
					<path style="fill:#FFFFFF;" d="M1691.808,3140.621c-1.298,0-2.532-0.761-3.068-2.033c-4.916-11.626-7.408-23.968-7.408-36.688       c0-51.966,42.278-94.244,94.245-94.244c16.119,0,32.029,4.14,46.008,11.978c1.605,0.897,2.177,2.927,1.278,4.533       c-0.901,1.606-2.932,2.179-4.533,1.275c-12.987-7.278-27.772-11.126-42.753-11.126c-48.294,0-87.585,39.289-87.585,87.583       c0,11.825,2.315,23.295,6.881,34.092c0.717,1.694-0.076,3.649-1.769,4.364       C1692.68,3140.536,1692.241,3140.621,1691.808,3140.621z"/>
				</g>
				
					<linearGradient id="SVGID_00000092423210144196271950000017041065823251167625_" gradientUnits="userSpaceOnUse" x1="-158.6311" y1="3025.8655" x2="-287.1632" y2="3236.4604" gradientTransform="matrix(-1 0 0 1 1574 0)">
					<stop offset="0" style="stop-color:#2B3582"/>
					<stop offset="1" style="stop-color:#150E42"/>
				</linearGradient>
				<path style="fill:url(#SVGID_00000092423210144196271950000017041065823251167625_);" d="M1731.947,3101.902      c0,26.008,21.083,47.092,47.092,47.092c26.008,0,47.091-21.084,47.091-47.092c0-26.008-21.083-47.091-47.091-47.091      C1753.03,3054.811,1731.947,3075.894,1731.947,3101.902z"/>
			</g>
			<path style="fill:#FFFFFF;" d="M2293.06,2595.722c0-3.678-2.982-6.66-6.66-6.66h-399.623c-3.678,0-6.66,2.982-6.66,6.66l0,0     c0,3.678,2.982,6.66,6.66,6.66H2286.4C2290.078,2602.383,2293.06,2599.4,2293.06,2595.722L2293.06,2595.722z"/>
			<path style="fill:#FFFFFF;" d="M1846.815,2595.722c0-3.678-2.982-6.66-6.66-6.66h-399.623c-3.678,0-6.66,2.982-6.66,6.66l0,0     c0,3.678,2.982,6.66,6.66,6.66h399.623C1843.833,2602.383,1846.815,2599.4,1846.815,2595.722L1846.815,2595.722z"/>
			<path style="fill:#FFFFFF;" d="M2735.975,2595.722c0-3.678-2.982-6.66-6.66-6.66h-399.623c-3.678,0-6.66,2.982-6.66,6.66l0,0     c0,3.678,2.982,6.66,6.66,6.66h399.623C2732.993,2602.383,2735.975,2599.4,2735.975,2595.722L2735.975,2595.722z"/>
		</g>
	</g>
</g>
</svg>