<?xml version="1.0" encoding="UTF-8"?>
<svg xmlns="http://www.w3.org/2000/svg" xmlns:xlink="http://www.w3.org/1999/xlink" version="1.1" x="0px" y="0px" viewBox="0 0 2500 2500" style="background: transparent;" xml:space="preserve">
<g id="Background">
	
</g>
<g id="Illustration">
	<g id="Public_transport_1_">
		<circle style="fill:#F2E6DC;" cx="1250" cy="1250" r="915"/>
		<g>
			<path style="fill:#E6D0BE;" d="M911.997,672.452c-0.553,0-1-0.447-1-1V473.701h537.431v56.26c0,0.553-0.447,1-1,1s-1-0.447-1-1     v-54.26H912.997v195.751C912.997,672.005,912.55,672.452,911.997,672.452z"/>
			<path style="fill:#E6D0BE;" d="M447.565,1114.54c-0.553,0-1-0.447-1-1V583.815h434.203c0.553,0,1,0.447,1,1c0,0.553-0.447,1-1,1     H448.565v527.725C448.565,1114.093,448.117,1114.54,447.565,1114.54z"/>
			<path style="fill:#FFFFFF;" d="M534.604,1138.21H368.195c-0.553,0-1-0.447-1-1s0.447-1,1-1h166.408c0.553,0,1,0.447,1,1     S535.156,1138.21,534.604,1138.21z"/>
			<path style="fill:#FFFFFF;" d="M487.686,1462.003c-0.553,0-1-0.447-1-1v-258.311H368.195c-0.553,0-1-0.447-1-1s0.447-1,1-1     h120.491v260.311C488.686,1461.556,488.239,1462.003,487.686,1462.003z"/>
			<g>
				<rect x="975.825" y="552.813" style="fill:#E6D0BE;" width="222.859" height="50.652"/>
				<rect x="975.825" y="637.256" style="fill:#E6D0BE;" width="222.859" height="50.652"/>
				<rect x="975.825" y="721.7" style="fill:#E6D0BE;" width="222.859" height="50.652"/>
				<rect x="975.825" y="806.144" style="fill:#E6D0BE;" width="222.859" height="50.652"/>
				<rect x="975.825" y="890.588" style="fill:#E6D0BE;" width="222.859" height="50.652"/>
				<rect x="1227.248" y="552.813" style="fill:#E6D0BE;" width="56.636" height="50.652"/>
				<rect x="1227.248" y="637.256" style="fill:#E6D0BE;" width="56.636" height="50.652"/>
				<rect x="1227.248" y="721.7" style="fill:#E6D0BE;" width="56.636" height="50.652"/>
				<rect x="1227.248" y="806.144" style="fill:#E6D0BE;" width="56.636" height="50.652"/>
				<rect x="1227.248" y="890.588" style="fill:#E6D0BE;" width="56.636" height="50.652"/>
			</g>
			<g>
				<path style="fill:#FFFFFF;" d="M562.293,1061.404h-52.894V636.257h52.894V1061.404z M511.399,1059.404h48.894V638.257h-48.894      V1059.404z"/>
				<path style="fill:#FFFFFF;" d="M653.633,1061.404h-52.893V636.257h52.893V1061.404z M602.739,1059.404h48.893V638.257h-48.893      V1059.404z"/>
				<path style="fill:#FFFFFF;" d="M744.973,1061.404h-52.895V636.257h52.895V1061.404z M694.078,1059.404h48.895V638.257h-48.895      V1059.404z"/>
				<path style="fill:#FFFFFF;" d="M836.313,1061.404h-52.894V636.257h52.894V1061.404z M785.418,1059.404h48.894V638.257h-48.894      V1059.404z"/>
			</g>
		</g>
		<g>
			<g>
				<path style="fill:#40484C;" d="M1975.692,1567.17c0,31.051-25.172,56.223-56.223,56.223h-508.832      c-31.051,0-56.223-25.172-56.223-56.223V609.036c0-31.051,25.172-56.223,56.223-56.223h508.832      c31.051,0,56.223,25.172,56.223,56.223V1567.17z"/>
				<path style="fill:#F2E6DC;" d="M1414.125,612.405c-16.894,0-30.589,13.695-30.589,30.589v901.997      c0,16.894,13.695,30.589,30.589,30.589h501.855c16.894,0,30.589-13.695,30.589-30.589V642.994      c0-16.894-13.695-30.589-30.589-30.589H1414.125z"/>
				<path style="fill:#F2E6DC;" d="M1737.316,585.815h-144.527c-0.553,0-1-0.447-1-1c0-0.553,0.447-1,1-1h144.527      c0.553,0,1,0.447,1,1C1738.316,585.368,1737.869,585.815,1737.316,585.815z"/>
			</g>
			<g>
				<g>
					<rect x="1455.668" y="697.068" style="fill:#EFBC73;" width="418.771" height="418.771"/>
					<g>
						<path style="fill:#FFFFFF;" d="M1767.864,1100.008c-0.553,0-1-0.447-1-1v-70.221l-88.996-88.996h-163.743V713.899        c0-0.553,0.447-1,1-1s1,0.447,1,1v223.892h162.571l90.168,90.168v71.049        C1768.864,1099.561,1768.417,1100.008,1767.864,1100.008z"/>
						<path style="fill:#FFFFFF;" d="M1692.023,1098.956c-0.256,0-0.512-0.098-0.707-0.293l-127.215-127.216v-58.059        l143.164-143.164h145.932c0.553,0,1,0.447,1,1c0,0.553-0.447,1-1,1h-145.104l-141.992,141.992v56.402l126.629,126.63        c0.391,0.391,0.391,1.023,0,1.414C1692.535,1098.858,1692.279,1098.956,1692.023,1098.956z"/>
						<path style="fill:#FFFFFF;" d="M1789.522,907.453h-137.229V732.538h-175.386c-0.553,0-1-0.447-1-1c0-0.553,0.447-1,1-1        h177.386v174.915h133.229V719.778c0-0.553,0.447-1,1-1s1,0.447,1,1V907.453z"/>
						<path style="fill:#FFFFFF;" d="M1500.427,1100.008c-0.553,0-1-0.447-1-1v-52.446h113.767l53.65-53.65h186.354        c0.553,0,1,0.447,1,1c0,0.553-0.447,1-1,1h-185.525l-53.65,53.65h-112.595v50.446        C1501.427,1099.561,1500.979,1100.008,1500.427,1100.008z"/>
					</g>
					<g>
						
							<ellipse transform="matrix(0.7071 -0.7071 0.7071 0.7071 -284.0087 1399.4076)" style="fill:#D87355;" cx="1547.23" cy="1042.533" rx="17.871" ry="17.871"/>
						<g>
							<path style="fill:#D87355;" d="M1547.23,861.872c-29.892,0-54.124,24.232-54.124,54.124         c0,29.892,54.124,95.856,54.124,95.856s54.124-65.964,54.124-95.856C1601.354,886.104,1577.122,861.872,1547.23,861.872z"/>
							<circle style="fill:#FFFFFF;" cx="1547.23" cy="915.996" r="37.034"/>
						</g>
					</g>
					<path style="fill:#D87355;" d="M1613.607,1048.562h-66.37c-0.553,0-1-0.447-1-1s0.447-1,1-1h65.956l53.357-53.357       c0.188-0.188,0.441-0.293,0.707-0.293h185.939c0.553,0,1,0.447,1,1c0,0.553-0.447,1-1,1h-185.525l-53.357,53.357       C1614.127,1048.456,1613.873,1048.562,1613.607,1048.562z"/>
				</g>
				<g>
					<rect x="1120.851" y="1161.637" style="fill:#8B865C;" width="753.587" height="91.936"/>
					<g>
						<rect x="1274.002" y="1283.126" style="fill:#E6D0BE;" width="600.436" height="45.968"/>
						<rect x="1120.851" y="1283.126" style="fill:#FFFFFF;" width="121.182" height="45.968"/>
					</g>
					<g>
						<rect x="1274.002" y="1358.647" style="fill:#E6D0BE;" width="600.436" height="45.968"/>
						<rect x="1120.851" y="1358.647" style="fill:#FFFFFF;" width="121.182" height="45.968"/>
					</g>
					<g>
						<rect x="1274.002" y="1434.168" style="fill:#E6D0BE;" width="600.436" height="45.968"/>
						<rect x="1120.851" y="1434.168" style="fill:#FFFFFF;" width="121.182" height="45.968"/>
					</g>
				</g>
			</g>
		</g>
		<g>
			<g>
				<path style="fill:#363E44;" d="M1013.382,845.08c0,0-13.743,23.593-3.62,42.681c3.981,7.507,9.81,10.81,16.211,15.024      c6.648,4.376,50.147,33.01,58.972,70.382c1.826,7.733,4.792,20.296-0.85,31.467c-12.045,23.845-54.056,23.017-104.607,23.813      c-129.371,2.038-144.825,12.04-225.841,1.723c-59.005-7.514-83.728-16.815-96.936-37.906      c-9.192-14.677-13.147-34.591-7.978-61.354c16.751-86.734,114.963-82.941,152.135-117.709      c37.171-34.768,63.353-70.807,127.294-73.607c63.941-2.799,135.496,31.435,128.545,86.456c-0.217,1.717-0.943,8.51-6.019,13.901      C1039.355,851.988,1016.847,846.043,1013.382,845.08z"/>
				<path style="fill:#363E44;" d="M667.494,990.344c-0.178,0-0.358-0.048-0.521-0.148c-32.735-20.063-46.463-48.266-38.656-79.41      c5.188-20.697,19.415-40.926,40.059-56.96c20.745-16.112,45.146-25.748,68.706-27.131      c78.472-4.606,103.433-39.029,103.675-39.376c0.317-0.452,0.94-0.565,1.392-0.247c0.452,0.315,0.564,0.938,0.248,1.391      c-0.255,0.366-6.427,9.066-22.545,18.434c-14.794,8.598-41.143,19.358-82.653,21.795      c-47.446,2.786-96.419,40.602-106.941,82.581c-7.577,30.227,5.833,57.65,37.761,77.219c0.471,0.288,0.619,0.904,0.33,1.375      C668.159,990.174,667.831,990.344,667.494,990.344z"/>
			</g>
			<path style="fill:#FFFFFF;" d="M612.337,1159.852c0,0-40.449,172.366-8.617,380.401h561.105c0,0-82.199-199.221-82.163-300.616     L612.337,1159.852z"/>
			<path style="fill:#9E6C5A;" d="M562.03,1221.467c0,0-16.502,195.479,106.636,215.703     c123.138,20.225,103.948-205.178,103.948-205.178L562.03,1221.467z"/>
			<path style="fill:#FFFFFF;" d="M534.604,1245.543c0,0,151.437,9.558,254.723,59.368c103.286,49.811,406.851,2.698,486.953-73.481     c0,0-89.894-256.515-377.24-256.108C611.693,975.728,557.249,1118.08,534.604,1245.543z"/>
			<g>
				<g>
					<polygon style="fill:#9E6C5A;" points="819.303,998.817 874.73,857.129 953.977,881.078 932.935,997.342      "/>
					<path style="fill:#9E6C5A;" d="M948.736,997.919c0,10.002-31.398,18.111-70.13,18.111c-38.732,0-70.13-8.109-70.13-18.111       c0-10.003,31.398-20.738,70.13-20.738C917.338,977.181,948.736,987.917,948.736,997.919z"/>
				</g>
				<path style="fill:#9E6C5A;" d="M1016.017,819.375c0,0-11.389,110.975-58.299,114.524c-28.381,2.147-54.391-30.487-60.7-45.805      c-6.309-15.318,0-40.359,0-40.359s9.53,8.926,17.188,3.031c7.657-5.895-1.187-42.961,32.488-41.447      C980.369,810.834,984.022,825.073,1016.017,819.375z"/>
				<path style="fill:#363E44;" d="M945.683,935.593c-0.088,0-0.177-0.012-0.265-0.035c-15.706-4.298-30.614-17.913-38.423-29.5      c-0.309-0.458-0.188-1.079,0.271-1.388c0.455-0.308,1.079-0.189,1.388,0.271c7.603,11.28,22.081,24.525,37.292,28.688      c0.533,0.146,0.847,0.696,0.701,1.228C946.524,935.301,946.122,935.593,945.683,935.593z"/>
				<path style="fill:#363E44;" d="M805.285,981.333c0,0,66.747,8.217,82.02-85.16c9.218-56.356,37.965-83.305,48.503-106.58      C946.345,766.317,832.42,835.449,805.285,981.333z"/>
				<path style="fill:#9E6C5A;" d="M912.768,859.024c2.871,8.956,0.094,25.262-8.862,28.134c-8.956,2.872-20.698-8.78-23.569-17.735      c-2.872-8.956,2.061-18.543,11.016-21.415C900.309,845.136,909.896,850.068,912.768,859.024z"/>
				<g>
					<g>
						<path style="fill:#FFFFFF;" d="M1013.545,857.484c-0.097,0.205-0.019,0.423-0.116,0.628c-0.004,0.009-0.01,0.014-0.015,0.022        c-0.4,3.162-0.814,6.498-0.63,9.679c0.082,1.408,0.684,2.389,0.912,3.708c0.167,0.968,0.322,1.894,0.526,2.84        c9.427-4.769,15.099-12.995,15.099-12.995S1022.302,858.016,1013.545,857.484z"/>
						<path style="fill:#363E44;" d="M1003.163,858.446c-11.986,3.148-19.869,13.367-21.145,15.113        c0.069,0.159,0.142,0.316,0.216,0.474c2.25,1.008,13.947,5.825,25.739,2.728c2.211-0.581,4.269-1.416,6.186-2.381        c0.384-0.777,0.734-1.58,1.007-2.43c1.616-5.026,0.855-10.237-1.635-14.452        C1010.249,857.313,1006.713,857.513,1003.163,858.446z"/>
					</g>
					<g>
						<path style="fill:#FFFFFF;" d="M950.24,859.514c-1.216,3.564-1.475,6.483-0.432,9.937c8.695,2.233,16.472,1.037,16.472,1.037        s-3.63-11.22-12.588-18.696C951.961,853.959,951.103,856.984,950.24,859.514z"/>
						<path style="fill:#363E44;" d="M949.623,869.399c4.387-4.609,6.046-11.345,4.053-17.592c-1.011-0.832-2.072-1.631-3.224-2.349        c-11.509-7.178-25.848-4.963-25.848-4.963s4.319,13.852,15.828,21.03C943.406,867.379,946.568,868.599,949.623,869.399z"/>
					</g>
				</g>
				<g>
					<path style="fill:#363E44;" d="M889.37,871.227c-0.426,0-0.821-0.274-0.954-0.702c-0.185-0.594-0.322-1.218-0.406-1.852       c-0.327-2.494,0.19-4.953,1.459-6.927c1.303-2.026,3.235-3.302,5.441-3.591c1.121-0.149,2.24-0.031,3.328,0.347       c0.522,0.181,0.798,0.751,0.616,1.272c-0.181,0.521-0.75,0.798-1.273,0.616c-0.789-0.272-1.599-0.357-2.411-0.253       c-1.613,0.212-3.041,1.167-4.019,2.689c-1.014,1.576-1.425,3.56-1.159,5.585c0.069,0.521,0.181,1.032,0.332,1.518       c0.165,0.527-0.129,1.088-0.656,1.252C889.569,871.213,889.469,871.227,889.37,871.227z"/>
				</g>
				<path style="fill:#363E44;" d="M976.888,889.316c-0.295,0-0.586-0.129-0.783-0.377c-0.344-0.433-0.273-1.062,0.159-1.405      c1.299-1.034,2.03-2.131,2.175-3.261c0.149-1.166-0.387-2.1-1.129-3.392c-0.615-1.071-1.312-2.285-1.827-3.957      c-0.655-2.134-0.82-4.446-0.492-6.873c0.075-0.547,0.584-0.925,1.125-0.857c0.548,0.074,0.932,0.578,0.858,1.126      c-0.29,2.137-0.148,4.161,0.422,6.016c0.448,1.457,1.087,2.568,1.649,3.549c0.83,1.445,1.613,2.809,1.379,4.642      c-0.213,1.664-1.193,3.202-2.913,4.571C977.325,889.245,977.106,889.316,976.888,889.316z"/>
				<path style="fill:#363E44;" d="M963.378,903.375c-1.534,0-2.913-0.39-4.126-1.168c-3.64-2.339-4.31-7.319-4.337-7.53      c-0.069-0.548,0.317-1.047,0.864-1.117c0.554-0.063,1.048,0.317,1.12,0.863c0.005,0.043,0.589,4.28,3.442,6.106      c1.532,0.981,3.502,1.104,5.857,0.371c0.522-0.166,1.088,0.129,1.252,0.656c0.165,0.527-0.129,1.088-0.656,1.252      C965.585,903.187,964.444,903.375,963.378,903.375z"/>
			</g>
			<g>
				<path style="fill:#9E6C5A;" d="M1269.338,1159.852c0,0,94.201,161.312-10.98,209.111      c-134.003,60.898-214.36-74.487-214.36-74.487L1269.338,1159.852z"/>
				<g>
					<g>
						<polygon style="fill:#D87355;" points="1172.704,1330.499 921.786,1330.499 1048.554,1038.511 1299.472,1038.511       "/>
					</g>
					<g>
						<path style="fill:#D87355;" d="M914.914,1314.705c-0.133,0-0.268-0.026-0.398-0.083c-0.507-0.22-0.739-0.809-0.519-1.315        l123.999-285.607c0.158-0.365,0.519-0.602,0.917-0.602h244.898c0.553,0,1,0.447,1,1s-0.447,1-1,1H1039.57l-123.738,285.006        C915.669,1314.48,915.301,1314.705,914.914,1314.705z"/>
					</g>
				</g>
				<g>
					<path style="fill:#9E6C5A;" d="M1168.606,1110.101c2.021-14.862,35.862-16.855,68.693-16.292       c24.107,0.413,51.519,2.67,51.519,22.039c0,22.518-33.964,22.488-56.065,20.614       C1199.951,1133.679,1166.631,1124.631,1168.606,1110.101z"/>
					<path style="fill:#9E6C5A;" d="M1157.732,1143.969c2.203-15.69,39.106-17.794,74.906-17.2       c26.288,0.436,56.179,2.819,56.179,23.267c0,23.772-37.037,23.741-61.137,21.762       C1191.913,1168.861,1155.578,1159.308,1157.732,1143.969z"/>
					<path style="fill:#9E6C5A;" d="M1156.459,1184.635c1.251-16.329,33.703-19.894,65.303-20.624       c23.203-0.536,49.67,0.807,50.572,21.98c1.049,24.614-31.616,25.974-52.958,24.83       C1187.702,1209.124,1155.236,1200.598,1156.459,1184.635z"/>
					<path style="fill:#9E6C5A;" d="M1164.589,1218.714c0.952-13.523,26.417-16.416,51.219-16.962       c18.212-0.401,38.989,0.761,39.736,18.299c0.869,20.39-24.768,21.455-41.522,20.469       C1189.158,1239.056,1163.659,1231.935,1164.589,1218.714z"/>
					<path style="fill:#363E44;" d="M1220.147,1241.634c-2.652,0-5.443-0.086-8.375-0.259c-0.552-0.032-0.972-0.506-0.939-1.057       s0.521-0.964,1.057-0.939c18.894,1.113,32.162-1.529,38.368-7.635c3.047-2.997,4.489-6.917,4.287-11.65       c-0.185-4.335-1.627-7.735-4.409-10.396l-1.333-1.275l1.796-0.421c14.238-3.34,21.215-10.731,20.736-21.968       c-0.26-6.092-2.693-10.702-7.439-14.095l-1.936-1.383l2.342-0.415c3.497-0.62,6.654-1.451,9.383-2.471       c0.52-0.193,1.093,0.069,1.286,0.587c0.193,0.517-0.069,1.093-0.587,1.286c-2.268,0.848-4.811,1.568-7.583,2.151       c4.088,3.601,6.282,8.386,6.532,14.253c0.507,11.879-6.426,19.808-20.613,23.585c2.362,2.809,3.646,6.324,3.823,10.476       c0.227,5.323-1.416,9.751-4.883,13.162C1245.941,1238.797,1235.359,1241.634,1220.147,1241.634z"/>
					<path style="fill:#363E44;" d="M1276.316,1134.003c-0.018,0-0.035,0-0.052-0.001l-69.698-3.567       c-0.552-0.028-0.977-0.499-0.948-1.05c0.028-0.552,0.513-0.983,1.05-0.948l69.698,3.567c0.552,0.028,0.977,0.499,0.948,1.05       C1277.287,1133.588,1276.845,1134.003,1276.316,1134.003z"/>
					<path style="fill:#363E44;" d="M1266.43,1171.901c-0.021,0-0.043-0.001-0.064-0.002l-67.744-4.293       c-0.551-0.035-0.97-0.51-0.935-1.062c0.034-0.552,0.502-0.958,1.062-0.935l67.744,4.293c0.551,0.035,0.97,0.51,0.935,1.062       C1267.394,1171.494,1266.953,1171.901,1266.43,1171.901z"/>
					<path style="fill:#363E44;" d="M1251.6,1209.801c-0.016,0-0.031,0-0.047-0.001l-69.137-3.151       c-0.552-0.025-0.979-0.493-0.953-1.045s0.487-0.999,1.045-0.953l69.137,3.151c0.552,0.025,0.979,0.493,0.953,1.045       C1252.573,1209.383,1252.131,1209.801,1251.6,1209.801z"/>
				</g>
			</g>
			<g>
				<g>
					<path style="fill:#9E6C5A;" d="M855.685,1053.248c-81.987,62.22-264.169,318.667-264.169,318.667l50.378,57.658l19.419,8.201       c63.172,26.676,136.197-0.363,166.763-61.748l91.612-189.212c0,0,16.779,4.154,23.758-2.309       c8.432-7.81,9.836-23.74,9.836-23.74s10.564-2.671,14.501-14.302c3.556-10.506-3.864-18.461-3.864-18.461       s8.785-12.432,2.88-25.047c-8.801-18.803-45.011-25.459-45.011-25.459s87.052,7.59,85.977-15.289       C1006.772,1041.111,886.023,1030.225,855.685,1053.248z"/>
				</g>
				<g>
					<path style="fill:#363E44;" d="M610.203,1347.004c-0.204,0-0.41-0.063-0.588-0.191c-0.446-0.325-0.545-0.95-0.22-1.397       c13.565-18.64,34.947-47.707,59.78-80.329c0.335-0.439,0.963-0.525,1.401-0.19c0.44,0.335,0.525,0.962,0.19,1.401       c-24.822,32.608-46.196,61.663-59.755,80.296C610.817,1346.861,610.513,1347.004,610.203,1347.004z"/>
				</g>
				<path style="fill:#363E44;" d="M963.762,1128.982c-0.316,0-0.629-0.15-0.822-0.43c-4.054-5.844-13.145-16.425-28.489-21.634      c-11.233-3.815-21.405-3.253-27.959-2.109c-0.549,0.094-1.063-0.271-1.157-0.813c-0.095-0.544,0.27-1.063,0.814-1.157      c6.782-1.183,17.309-1.765,28.945,2.186c15.889,5.395,25.296,16.342,29.489,22.388c0.316,0.454,0.202,1.077-0.251,1.392      C964.157,1128.925,963.958,1128.982,963.762,1128.982z"/>
				<path style="fill:#363E44;" d="M953.833,1161.248c-0.294,0-0.584-0.128-0.781-0.375c-4.788-5.979-10.563-10.819-17.163-14.386      c-10.307-5.57-20.307-6.76-26.961-6.76c-0.084,0-0.167,0.001-0.249,0.001c-0.002,0-0.004,0-0.005,0      c-0.551,0-0.997-0.444-1-0.995c-0.003-0.553,0.443-1.002,0.995-1.005c0.086,0,0.172-0.001,0.259-0.001      c6.888,0,17.237,1.231,27.912,7c6.837,3.694,12.817,8.706,17.773,14.896c0.346,0.431,0.276,1.061-0.155,1.405      C954.273,1161.177,954.052,1161.248,953.833,1161.248z"/>
				<path style="fill:#363E44;" d="M919.236,1187.36c-0.123,0-0.247-0.022-0.368-0.07c-0.514-0.203-0.765-0.784-0.562-1.298      l5.1-12.885c0.204-0.514,0.786-0.764,1.298-0.562c0.514,0.203,0.765,0.784,0.562,1.298l-5.1,12.885      C920.011,1187.121,919.634,1187.36,919.236,1187.36z"/>
			</g>
		</g>
		<g>
			<polygon style="fill:#EFBC73;" points="2034.386,1972.798 408.346,1972.798 408.346,1514.314 2010.176,1514.314      2065.278,1859.359    "/>
			<g>
				<rect x="534.452" y="1569.273" style="fill:#40484C;" width="223.748" height="273.044"/>
				<rect x="781.273" y="1569.273" style="fill:#40484C;" width="223.748" height="273.044"/>
				<rect x="1223.679" y="1569.273" style="fill:#40484C;" width="223.749" height="273.044"/>
				<rect x="1470.5" y="1569.273" style="fill:#40484C;" width="223.749" height="273.044"/>
				<polygon style="fill:#40484C;" points="2003.286,1569.273 1912.157,1569.273 1912.157,1842.317 2046.89,1842.317     "/>
				<g>
					<polygon style="fill:#40484C;" points="1200.332,1840.651 1028.566,1701.42 1028.566,1569.273 1200.332,1569.273      "/>
					<polygon style="fill:#40484C;" points="1200.332,1883.06 1028.566,1743.828 1028.566,1972.798 1200.332,1972.798      "/>
				</g>
				<g>
					<polygon style="fill:#40484C;" points="1889.086,1840.651 1717.32,1701.42 1717.32,1569.273 1889.086,1569.273      "/>
					<polygon style="fill:#40484C;" points="1889.086,1883.06 1717.32,1743.828 1717.32,1972.798 1889.086,1972.798      "/>
				</g>
			</g>
			<g>
				<g>
					
						<ellipse transform="matrix(0.1602 -0.9871 0.9871 0.1602 -1321.3253 2392.563)" style="fill:#363E44;" cx="745.398" cy="1972.797" rx="80.273" ry="80.273"/>
					<path style="fill:#F7F1EB;" d="M745.398,2016.206c-23.936,0-43.408-19.473-43.408-43.408s19.473-43.408,43.408-43.408       c23.935,0,43.409,19.473,43.409,43.408S769.333,2016.206,745.398,2016.206z M745.398,1931.39       c-22.833,0-41.408,18.575-41.408,41.408s18.575,41.408,41.408,41.408s41.409-18.575,41.409-41.408       S768.231,1931.39,745.398,1931.39z"/>
				</g>
				<g>
					
						<ellipse transform="matrix(0.2669 -0.9637 0.9637 0.2669 -1223.9152 2336.5923)" style="fill:#363E44;" cx="923.926" cy="1972.797" rx="80.273" ry="80.273"/>
					<path style="fill:#F7F1EB;" d="M923.927,2016.206c-23.936,0-43.408-19.473-43.408-43.408s19.473-43.408,43.408-43.408       c23.935,0,43.408,19.473,43.408,43.408S947.862,2016.206,923.927,2016.206z M923.927,1931.39       c-22.833,0-41.408,18.575-41.408,41.408s18.575,41.408,41.408,41.408s41.408-18.575,41.408-41.408       S946.76,1931.39,923.927,1931.39z"/>
				</g>
				<g>
					
						<ellipse transform="matrix(0.2669 -0.9637 0.9637 0.2669 -756.8776 2950.5767)" style="fill:#363E44;" cx="1561.028" cy="1972.797" rx="80.273" ry="80.273"/>
					<path style="fill:#F7F1EB;" d="M1561.028,2016.206c-23.936,0-43.408-19.473-43.408-43.408s19.473-43.408,43.408-43.408       s43.408,19.473,43.408,43.408S1584.964,2016.206,1561.028,2016.206z M1561.028,1931.39c-22.833,0-41.408,18.575-41.408,41.408       s18.575,41.408,41.408,41.408s41.408-18.575,41.408-41.408S1583.861,1931.39,1561.028,1931.39z"/>
				</g>
			</g>
		</g>
		<g>
			<rect x="368.195" y="382.56" style="fill:#8B865C;" width="391.4" height="340.505"/>
			<g>
				<path style="fill:#FFFFFF;" d="M682.295,642.41h-236.8c-0.553,0-1-0.447-1-1V432.801c0-0.553,0.447-1,1-1h236.8      c0.553,0,1,0.447,1,1V641.41C683.295,641.963,682.848,642.41,682.295,642.41z M446.495,640.41h234.8V433.801h-234.8V640.41z"/>
				<path style="fill:#FFFFFF;" d="M671.019,571.934H456.772c-0.553,0-1-0.447-1-1V461.931c0-0.553,0.447-1,1-1h214.248      c0.553,0,1,0.447,1,1v109.003C672.019,571.486,671.572,571.934,671.019,571.934z M457.772,569.934h212.248V462.931H457.772      V569.934z"/>
				<path style="fill:#FFFFFF;" d="M611.819,630.194h-95.848c-0.553,0-1-0.447-1-1V613.22c0-0.553,0.447-1,1-1h95.848      c0.553,0,1,0.447,1,1v15.975C612.819,629.747,612.372,630.194,611.819,630.194z M516.972,628.194h93.848V614.22h-93.848V628.194      z"/>
				<g>
					<g>
						
							<ellipse transform="matrix(0.2298 -0.9732 0.9732 0.2298 -218.3933 916.6592)" style="fill:#FFFFFF;" cx="469.927" cy="596.305" rx="13.156" ry="13.156"/>
						<circle style="fill:#FFFFFF;" cx="491.07" cy="618.388" r="7.987"/>
					</g>
					<g>
						
							<ellipse transform="matrix(0.9732 -0.2298 0.2298 0.9732 -119.4041 167.0973)" style="fill:#FFFFFF;" cx="657.864" cy="596.305" rx="13.156" ry="13.156"/>
						<circle style="fill:#FFFFFF;" cx="636.721" cy="618.388" r="7.987"/>
					</g>
				</g>
				<g>
					<rect x="454.775" y="651.747" style="fill:#F7F1EB;" width="34.298" height="34.298"/>
					<rect x="638.718" y="651.747" style="fill:#F7F1EB;" width="34.298" height="34.298"/>
				</g>
				<g>
					<g>
						<rect x="408.613" y="481.664" style="fill:#F7F1EB;" width="26.311" height="70.476"/>
						<path style="fill:#FFFFFF;" d="M436.804,575.692c-0.256,0-0.512-0.098-0.707-0.293l-15.035-15.034        c-0.391-0.391-0.391-1.023,0-1.414c0.391-0.391,1.023-0.391,1.414,0l15.035,15.034c0.391,0.391,0.391,1.023,0,1.414        C437.315,575.595,437.06,575.692,436.804,575.692z"/>
					</g>
					<g>
						
							<rect x="692.867" y="481.664" transform="matrix(-1 -1.224647e-16 1.224647e-16 -1 1412.0446 1033.8046)" style="fill:#F7F1EB;" width="26.311" height="70.476"/>
						<path style="fill:#FFFFFF;" d="M690.987,575.692c-0.256,0-0.512-0.098-0.707-0.293c-0.391-0.391-0.391-1.023,0-1.414        l15.035-15.034c0.391-0.391,1.023-0.391,1.414,0c0.391,0.391,0.391,1.023,0,1.414l-15.035,15.034        C691.499,575.595,691.243,575.692,690.987,575.692z"/>
					</g>
				</g>
			</g>
		</g>
	</g>
</g>
</svg>