<?xml version="1.0" encoding="UTF-8"?>
<svg xmlns="http://www.w3.org/2000/svg" xmlns:xlink="http://www.w3.org/1999/xlink" version="1.1" id="Layer_1" x="0px" y="0px" viewBox="0 0 3000 2000" style="background: transparent;" xml:space="preserve">

<g>
	<path style="fill:#EDF4FF;" d="M325.259,1664.807c0,0,2342.389,0.322,2342.483,0.214c61.893-157.214-8.271-277.364-155.063-413.186   c-109.904-101.892-314.023-137.115-260.783-352.244c62.843-253.594-234.067-336.579-530.408-257.377   c-231.786,61.913-445.127,281.689-605.8,207.997c-311.361-142.842-460.625-79.202-546.855-38.034   c-159.938,75.295-297.578,237.045-322.484,440.955C230.148,1392.832,265.251,1541.956,325.259,1664.807z"/>
	<g>
		<path style="fill:#739AF0;" d="M407.148,883.608c2.261,12.804,6.453,24.78,12.214,35.692l-20.313,19.014l43.818,46.812    l20.337-19.036c15.74,9.699,33.714,15.855,52.662,17.586l4.838,27.403l63.144-11.149l-4.838-27.402    c17.21-8.116,31.988-20.055,43.455-34.557l25.627,10.921l25.138-58.988l-25.596-10.908c1.675-12.225,1.513-24.912-0.748-37.716    c-2.261-12.804-6.453-24.78-12.213-35.692l20.313-19.014l-43.818-46.812l-20.337,19.036c-15.74-9.699-33.714-15.854-52.662-17.586    l-4.838-27.402l-63.144,11.149l4.838,27.403c-17.209,8.116-31.988,20.054-43.455,34.557l-25.626-10.921l-25.138,58.988    l25.596,10.908C404.726,858.117,404.888,870.805,407.148,883.608z M513.081,783.514c43.592-7.697,85.169,21.402,92.866,64.994    c7.697,43.592-21.401,85.169-64.994,92.866c-43.592,7.697-85.169-21.401-92.866-64.994    C440.39,832.788,469.489,791.21,513.081,783.514z"/>
		<path style="fill:#739AF0;" d="M374.375,1169.769c6.926,7.83,14.828,14.281,23.359,19.345l-5.944,21.564l49.698,13.699    l5.951-21.59c14.864,0.041,29.772-3.285,43.49-10.053l14.822,16.757l38.613-34.155l-14.822-16.757    c8.392-12.79,13.513-27.181,15.286-41.938l22.156-3.271l-7.53-50.998l-22.129,3.268c-3.984-9.085-9.422-17.716-16.348-25.546    c-6.926-7.83-14.828-14.28-23.359-19.344l5.944-21.565l-49.698-13.699l-5.951,21.59c-14.864-0.042-29.772,3.284-43.491,10.053    l-14.822-16.757l-38.613,34.155l14.822,16.757c-8.392,12.79-13.513,27.181-15.286,41.938l-22.155,3.271l7.53,50.998l22.129-3.268    C362.011,1153.309,367.449,1161.939,374.375,1169.769z M404.981,1056.664c26.657-23.579,67.381-21.084,90.96,5.573    c23.58,26.656,21.085,67.381-5.572,90.96c-26.657,23.579-67.381,21.084-90.96-5.572    C375.83,1120.968,378.325,1080.244,404.981,1056.664z"/>
		<path style="fill:#739AF0;" d="M691.677,879.732c6.074,6.866,13.003,12.523,20.485,16.963l-5.213,18.912l43.582,12.013    l5.219-18.934c13.035,0.036,26.108-2.88,38.139-8.815l12.998,14.695l33.861-29.952l-12.999-14.695    c7.36-11.216,11.85-23.835,13.405-36.777l19.429-2.869l-6.604-44.722l-19.406,2.865c-3.494-7.967-8.263-15.536-14.336-22.402    c-6.073-6.866-13.003-12.523-20.484-16.963l5.212-18.911l-43.582-12.013l-5.219,18.934c-13.035-0.037-26.108,2.88-38.139,8.815    l-12.998-14.695l-33.861,29.952l12.998,14.695c-7.359,11.216-11.85,23.835-13.405,36.777l-19.429,2.869l6.604,44.723l19.406-2.865    C680.834,865.297,685.603,872.866,691.677,879.732z M718.517,780.546c23.376-20.678,59.089-18.49,79.767,4.887    c20.677,23.376,18.49,59.089-4.887,79.767c-23.376,20.677-59.089,18.49-79.767-4.887    C692.953,836.937,695.141,801.224,718.517,780.546z"/>
		<g>
			<path style="fill:#8E3900;" d="M1405.417,1478.727c0.301,1.705,0.703,3.41,1.104,5.016c1.505,6.22,3.11,12.34,4.716,18.261     c0.1,0.499,0.3,1.001,0.4,1.504c0.202,0.603,0.302,1.202,0.502,1.806c1.806,6.724,3.712,13.143,5.619,19.463     c2.608,8.528,5.317,16.656,8.025,24.58c0.804,2.307,1.606,4.616,2.409,6.823c1.204,3.313,2.408,6.621,3.512,9.833c0,0,0,0,0,0.1     c1.104,2.609,2.006,5.017,3.009,7.525c1.504,4.012,3.11,7.825,4.615,11.637c2.307,5.619,4.615,11.037,6.822,16.054     c0.501,1.202,1.003,2.307,1.506,3.409c1.002,2.308,2.006,4.518,2.909,6.623h142.466v-132.633H1405.417z"/>
			
				<rect x="2070.043" y="1478.705" transform="matrix(-1 -1.224647e-16 1.224647e-16 -1 4404.2207 3090.0176)" style="fill:#2B478B;" width="264.135" height="132.607"/>
			
				<ellipse transform="matrix(0.9732 -0.2298 0.2298 0.9732 -304.9778 550.0008)" style="fill:#233862;" cx="2209.358" cy="1584.655" rx="78.28" ry="78.28"/>
			<path style="fill:#466AA5;" d="M2168.291,1584.659c0,9.146,2.994,17.593,8.051,24.411c7.471,10.107,19.479,16.654,33.015,16.654     c22.682,0,41.073-18.384,41.073-41.065c0-17.608-11.077-32.626-26.638-38.467c-4.491-1.684-9.354-2.606-14.436-2.606     C2186.675,1543.586,2168.291,1561.971,2168.291,1584.659z"/>
			<path style="fill:#88B374;" d="M1402.809,1236.03l1084.047-201.059c37.748,0,68.865,26.046,77.354,59.999     c3.776,13.383,44.931,165.726,50.966,214.701c4.917,36.92,6.822,77.955,7.324,117.686c0.351,59.496-1.414,92.138-4.515,148.586     c-1.404,19.965-17.858,35.417-37.823,35.417h-276.906c0.101-0.302,0.101-0.603,0.2-0.904c2.308-8.228,3.411-16.854,3.411-25.785     c0-37.521-21.169-70.127-52.271-86.481c-13.144-6.922-27.992-10.836-43.743-11.138c-16.755-0.201-32.607,3.814-46.452,11.138     c-30.801,16.154-52.07,48.158-52.572,85.078c-0.1,9.431,1.104,18.559,3.411,27.188c0.1,0.302,0.201,0.603,0.201,0.904h-151.897     H1583.5h-20.166c2.407-8.529,3.813-17.458,3.813-26.689c0-54.679-44.345-98.922-98.923-98.922     c-21.069,0-40.633,6.52-56.586,17.758C1408.703,1488.763,1370.658,1371.775,1402.809,1236.03z"/>
			<path style="fill:#FFB93E;" d="M2444.247,1515.847h48.374c4.854,0,8.824-3.971,8.824-8.824l0,0c0-4.854-3.971-8.823-8.824-8.823     h-48.374c-4.854,0-8.825,3.97-8.825,8.823l0,0C2435.422,1511.876,2439.394,1515.847,2444.247,1515.847z"/>
			<path style="fill:#A8D29F;" d="M1394.181,1282.784c0,0,1215.895-3.643,1216.415-1.502c2.078,8.603,3.668,16.12,4.631,22.139     c6.182,38.831,7.718,83.427,7.229,123.974c-0.131,10.61-0.395,20.943-0.76,30.818h-793.595v0.046h-427.098     c-2.407-12.341-4.515-25.183-6.22-38.227c-1.405-10.132-2.508-20.566-3.312-31.1c-0.3-4.919-0.601-9.832-0.902-14.849     c-0.202-5.017-0.402-10.032-0.503-15.151C1389.565,1334.151,1390.769,1308.67,1394.181,1282.784z"/>
			<path style="fill:#FFB93E;" d="M2602.438,1551.289h20.735c4.485,0,8.156-3.67,8.156-8.156v-57.82     c0-4.485-3.671-8.155-8.156-8.155h-20.735c-4.486,0-8.156,3.67-8.156,8.155v57.82     C2594.282,1547.619,2597.952,1551.289,2602.438,1551.289z"/>
			<path style="fill:#88B374;" d="M1394.181,1282.784c14.006-100.915,59.234-187.158,116.28-247.813h654.138     c0.021-0.015,0.041-0.029,0.062-0.044h322.219c27.599,0,52.474,14.338,66.324,35.418c7.238,0.254,15.549,1.032,24.105,2.815     c31.889,6.643,52.032,24.239,58.48,50.976l3.881-0.371c5.176-0.493,9.878,3.023,10.866,8.128l17.063,88.114     c1.132,5.847-3.02,11.397-8.948,11.963l-24.589,2.348c-5.547,0.53-10.475-3.538-11.004-9.086l-8.49-88.934     c-0.509-5.336,3.239-10.085,8.463-10.912c-5.561-24.095-19.479-42.175-48.537-48.276c-6.413-1.347-12.621-1.846-18.262-1.866     c5.684,7.308,11.689,32.635,22.295,73.603h-354.53v133.938H1394.181z"/>
			<path style="fill:#38568A;" d="M2575.01,1135.199c-4.286-16.66-7.752-30.133-10.782-40.229h-471.562h-629.042     c-26.471,40.905-47.701,88.497-60.507,141.002l-0.308,0.058c-3.261,13.768-5.789,27.337-7.715,40.632     c-0.31,2.037-0.628,4.072-0.913,6.122h0.065h1216.349C2602.267,1240.868,2585.966,1176.836,2575.01,1135.199z"/>
			<path style="fill:#38568A;" d="M2411.612,1139.6c-0.533-8.606,6.303-15.88,14.926-15.88h68.324     c43.979,0,74.268,34.839,79.632,79.632l15.863,194.57c0.543,6.662-4.717,12.369-11.402,12.369h-140.053     c-5.904,0-10.79-4.594-11.156-10.486L2411.612,1139.6z"/>
			<path style="fill:#466AA5;" d="M2424.978,1151.965l11.683,171.151l4.088,59.885c0,7.71,6.244,13.954,13.947,13.954h109.133     c19.168,0,13.466-28.43,11.922-46.371l-12.061-140.666c0-2.715-0.141-5.398-0.42-8.043     c-3.715-35.962-32.113-63.927-66.594-63.927h-40.91C2447.466,1137.948,2424.978,1137.948,2424.978,1151.965z"/>
			<path style="fill:#5F87C1;" d="M2168.291,1584.659c0,9.146,2.994,17.593,8.051,24.411c45.597-12.574,48.614-47.1,47.45-62.878     c-4.491-1.684-9.354-2.606-14.436-2.606C2186.675,1543.586,2168.291,1561.971,2168.291,1584.659z"/>
			<path style="fill:#233862;" d="M1417.758,1524.775c2.608,8.528,5.317,16.656,8.025,24.58c0.804,2.307,1.606,4.616,2.409,6.823     c1.204,3.313,2.408,6.621,3.512,9.833c0,0,0,0,0,0.1c1.104,2.609,2.006,5.017,3.009,7.525c1.504,4.012,3.11,7.825,4.615,11.637     c2.307,5.619,4.615,11.037,6.822,16.054c0.501,1.202,1.003,2.307,1.506,3.409c1.002,2.308,2.006,4.518,2.909,6.623     c2.007,4.414,4.013,8.627,5.919,12.542c1.906,3.911,3.711,7.625,5.417,11.036c6.421,12.64,11.838,23.074,14.247,27.591     c30.4-3.013,55.583-23.478,65.715-51.169c3.01-8.327,4.614-17.355,4.614-26.688c0-43.239-35.014-78.254-78.255-78.254     C1449.06,1506.417,1431.403,1513.339,1417.758,1524.775z"/>
			<path style="fill:#466AA5;" d="M1431.704,1566.012c0,0,0,0,0,0.1c1.104,2.609,2.006,5.017,3.009,7.525     c1.504,4.012,3.11,7.825,4.615,11.637c2.307,5.619,4.615,11.037,6.822,16.054c0.501,1.202,1.003,2.307,1.506,3.409     c1.002,2.308,2.006,4.518,2.909,6.623c2.007,4.414,4.013,8.627,5.919,12.542c3.711,1.202,7.625,1.805,11.738,1.805     c12.44,0,23.577-5.519,31.101-14.347c6.221-7.122,9.934-16.455,9.934-26.688c0-17.655-11.037-32.606-26.587-38.524     c-4.515-1.606-9.331-2.609-14.447-2.609C1452.27,1543.537,1438.425,1552.667,1431.704,1566.012z"/>
			<path style="fill:#5F87C1;" d="M1431.704,1566.012c0,0,0,0,0,0.1c1.104,2.609,2.006,5.017,3.009,7.525     c1.504,4.012,3.11,7.825,4.615,11.637c2.307,5.619,4.615,11.037,6.822,16.054c0.501,1.202,1.003,2.307,1.506,3.409     c33.71-14.945,36.017-44.345,35.014-58.59c-4.515-1.606-9.331-2.609-14.447-2.609     C1452.27,1543.537,1438.425,1552.667,1431.704,1566.012z"/>
			<path style="fill:#3F6098;" d="M2436.66,1323.116l4.088,59.885c0,7.71,6.244,13.954,13.947,13.954h109.133     c19.168,0,13.466-28.43,11.922-46.371l-12.061-140.666c0-2.715-0.141-5.398-0.42-8.043     C2544.25,1246.198,2506.155,1306.951,2436.66,1323.116z"/>
			<path style="fill:#466AA5;" d="M2047.144,1258.765h203.492c8.581,0,15.603-7.021,15.603-15.603v-107.468     c0-8.581-7.021-15.603-15.603-15.603h-203.492c-8.58,0-15.602,7.021-15.602,15.603v107.468     C2031.542,1251.743,2038.563,1258.765,2047.144,1258.765z"/>
			<path style="fill:#466AA5;" d="M2303.002,1258.765h91.167c5.949,0,10.816-4.868,10.816-10.816v-117.04     c0-5.948-4.867-10.816-10.816-10.816h-91.167c-5.948,0-10.815,4.868-10.815,10.816v117.04     C2292.187,1253.896,2297.054,1258.765,2303.002,1258.765z"/>
			<path style="fill:#466AA5;" d="M1783.733,1258.765h203.491c8.581,0,15.602-7.021,15.602-15.603v-107.468     c0-8.581-7.021-15.603-15.602-15.603h-203.491c-8.581,0-15.603,7.021-15.603,15.603v107.468     C1768.131,1251.743,1775.152,1258.765,1783.733,1258.765z"/>
			<path style="fill:#466AA5;" d="M1523.892,1258.765h203.492c8.581,0,15.602-7.021,15.602-15.603v-107.468     c0-8.581-7.021-15.603-15.602-15.603h-203.492c-8.58,0-15.602,7.021-15.602,15.603v107.468     C1508.29,1251.743,1515.312,1258.765,1523.892,1258.765z"/>
			<path style="fill:#466AA5;" d="M1467.22,1258.805c8.629,0,15.651-7.022,15.651-15.651v-107.452     c0-8.627-7.022-15.648-15.651-15.648h-18.669c-19.464,34.873-35.163,73.812-45.433,115.92l-0.308,0.058     c-1.814,7.658-3.393,15.252-4.776,22.774H1467.22z"/>
		</g>
		<g>
			<rect x="1031.767" y="683.929" style="fill:#739CF3;" width="411.504" height="979.024"/>
			<polygon style="fill:#6488D3;" points="1031.767,1041.881 898.534,1154.828 1326.903,1154.828 1443.271,1041.881    "/>
			<polygon style="fill:#739CF3;" points="1078.668,1060.918 990.348,1135.792 1274.316,1135.792 1351.457,1060.918    "/>
			<rect x="898.534" y="1154.828" style="fill:#739CF3;" width="428.37" height="507.827"/>
			<polygon style="fill:#2B478B;" points="1443.273,683.929 1443.273,1041.874 1326.903,1154.828 1326.903,1662.953      1443.273,1662.953 1443.273,1662.956 1598.062,1662.956 1598.062,683.929    "/>
			<rect x="1112.703" y="782.102" style="fill:#6488D3;" width="250.619" height="186.99"/>
			<rect x="1133.681" y="782.102" style="fill:#FFFFFF;" width="251.406" height="186.99"/>
			<g>
				<rect x="936.183" y="1193.732" style="fill:#6488D3;" width="109.183" height="16.315"/>
				<rect x="1170.902" y="1193.732" style="fill:#6488D3;" width="109.182" height="16.315"/>
				<g>
					<rect x="898.534" y="1510.66" style="fill:#6488D3;" width="699.528" height="2.583"/>
				</g>
				<g>
					<rect x="898.534" y="1247.941" style="fill:#6488D3;" width="699.528" height="2.585"/>
				</g>
			</g>
		</g>
		<path style="fill:#CB8757;" d="M920.299,754.831c0,0-29.563-3.238-37.743-13.31c0,0,7.379,21.521,42.299,34.065L920.299,754.831z"/>
		<g>
			<path style="fill:#D9935C;" d="M1165.15,1072.537l9.992,3.095c0,0,26.816-9.938,40.715,17.894c0,0,4.875,11.913-4.433,12.398     c-9.308,0.484-5.813-1.04-18.92-0.07c-13.107,0.97-25.519-4.162-29.73-12.801l-12.104-9.227L1165.15,1072.537z"/>
			<g>
				<g>
					<path style="fill:#233862;" d="M972.339,1662.425h-92.067c-0.39-0.09-0.708-0.199-0.943-0.308       c-4.889-2.313-4.97-17.612-4.508-27.335c0.227-4.706,0.581-8.106,0.581-8.106s31.378-26.21,36.175-6.747       c0.917,3.735,2.622,7.055,4.889,9.993c9.523,12.397,28.876,18.102,40.847,19.789       C971.143,1651.651,972.258,1661.174,972.339,1662.425z"/>
					<path style="fill:#F99746;" d="M969.525,1148.254c0,0-0.258,2.31-0.74,6.571c-1.912,16.82-7.252,64.009-13.445,119.403       c-0.267,2.248-0.508,4.539-0.766,6.83c-2.662,23.771-5.452,48.858-8.19,73.551c-0.284,2.583-0.569,5.159-0.853,7.733       c-1.911,17.269-3.772,34.252-5.538,50.374c-5.847,53.674-10.507,97.786-11.454,110.714       c-2.903,39.849-10.534,105.691-10.534,105.691s-0.525,0.311-1.541,0.801c-4.72,2.257-19.972,8.338-41.641,4.857       c-1.137-0.181-2.291-0.388-3.463-0.628c0,0-7.536-28.896-14.959-71.312c-1.525-8.707-3.041-17.975-4.488-27.688       c-2.17-14.487-4.169-29.955-5.796-45.956c-0.198-1.956-0.387-3.928-0.577-5.9c-1.171-12.385-2.11-25.045-2.705-37.791       c-0.069-1.576-0.129-3.179-0.189-4.771c-0.121-3.005-0.232-6.098-0.37-9.293c-0.061-1.705-0.129-3.437-0.199-5.192       l-0.059-1.767c-2.705-74.609-5.487-192.496-6.813-252.052c-0.257-11.48-0.465-20.791-0.602-27.206       c-0.025-1.155-0.052-2.214-0.069-3.179c-0.095-4.306-0.138-6.657-0.138-6.657l85.1,8.096L969.525,1148.254z"/>
					<path style="fill:#ED7D2B;" d="M901.96,1272.343c-7.355,57.937-37.551,203.538-50.047,262.81       c-2.17-14.487-4.169-29.955-5.796-45.956c-0.198-1.956-0.387-3.928-0.577-5.9c-1.171-12.385-2.11-25.045-2.705-37.791       c-0.069-1.576-0.129-3.179-0.189-4.771c-0.121-3.005-0.232-6.098-0.37-9.293c-0.061-1.705-0.129-3.437-0.199-5.192       l-0.059-1.767c-2.705-74.609-5.487-192.496-6.813-252.052C876.019,1160.097,914.491,1173.722,901.96,1272.343z"/>
				</g>
				<g>
					<path style="fill:#233862;" d="M842.046,1662.425H745c-4.172-3.736-4.054-18.891-3.555-28.231       c0.245-4.408,0.571-7.518,0.571-7.518s31.378-26.21,36.186-6.747c1.414,5.739,4.688,10.501,8.978,14.419       c10.248,9.368,26.31,13.893,36.748,15.363C835.97,1651.397,840.696,1659.46,842.046,1662.425z"/>
					<path style="fill:#F99746;" d="M914.491,1142.295c0,0-48.943,237.537-87.054,349.126       c-38.111,111.589-38.587,142.589-38.587,142.589s-34.97,7.581-50.378-1.223c0,0-8.803-211.538,14.258-267.721       c15.252-37.16,18.913-54.951,14.897-140.092c-1.354-28.728,0.392-90.256,0.392-90.256L914.491,1142.295z"/>
				</g>
				<path style="fill:#D9935C;" d="M710.981,1133.52l0.72,22.441c0,0-21.306,24.289-0.151,52.72c0,0,9.521,11.006,14.022,1.151      c4.502-9.855,1.499-6.8,8.119-20.538c6.619-13.738,1.223-31.475-2.241-37.552l0.962-18.03L710.981,1133.52z"/>
				<path style="fill:#D9935C;" d="M928.836,787.452c-7.641-20.372-8.726-34.359-8.726-34.359l-45.928-31.563      c-3.974,38.989-13.946,48.06-13.59,63.428c0.005,0.202,21.302,21.796,37.243,21.729      C913.143,806.623,928.911,787.65,928.836,787.452z"/>
				<path style="fill:#B64C41;" d="M1173.407,1072.732c0,0-2.144,5.546-5.383,10.567c-3.445,5.331-9.335,8.586-9.335,8.586      s-40.488-21.394-73.534-43.397c-2.644-1.758-5.236-3.522-7.76-5.288c-12.858-8.949-23.839-17.725-29.695-24.925      c-0.706-0.87-1.438-1.8-2.196-2.772c-18.689-24.159-51.081-79.597-51.081-79.597s-0.354,2.247-0.948,6.967      c0,0.009,0,0.009,0,0.009c-1.352,10.723-3.979,34.183-6.641,72.879c-3.996,58.169,8.277,129.626-17.31,132.493      c-117.672,13.178-156.635,2.377-193.616-6.226c-1.877-0.439-3.755-0.87-5.633-1.292c-6.89-1.55-12.006-7.08-10.137-13.893      c6.451-23.555,19.3-71.776,21.289-89.189c3.084-26.984,6.46-99.397,6.951-110.085c0.042-0.87,0.06-1.327,0.06-1.327      l-0.603,1.361l-0.017,0.086c-0.534,2.377-11.851,53.475-15.77,83.799c-3.109,24.012-38.945,133.209-38.945,133.209      l-23.013-0.835c0,0-6.7-117.448,3.109-148.332c3.574-11.23,12.273-188.19,62.329-205.933      c14.917-5.279,51.683-15.933,86.745-18.723c1.378,16.63,24.063,29.066,42.235,29.066c12.574,0,19.774-6.215,23.288-15.388      c44.948,11.739,76.694,21.425,91.335,37.074c43.613,46.602,56.385,123.063,79.51,161.733      C1113.594,1008.354,1173.407,1072.732,1173.407,1072.732z"/>
				<path style="fill:#D9935C;" d="M930.977,754.79c0,0-55.898,2.554-56.953-32.281c-1.055-34.835-8.979-57.967,26.666-61.07      c35.645-3.103,42.984,9.979,46.165,21.521C950.035,694.501,945.491,753.227,930.977,754.79z"/>
				<path style="fill:#AB7041;" d="M1174.311,1103.168c0,0,20.835,7.239,27.821,2.582c6.986-4.658-16.688-7.994-16.882-12.924      C1185.054,1087.897,1174.311,1103.168,1174.311,1103.168z"/>
				<path style="fill:#233862;" d="M871.632,738.044c0,0,2.859-2.178-8.268-19.042c-11.126-16.864-16.405-12.236-16.542-30.207      c-0.137-17.97-9.29-34.418,11.564-46.116c20.854-11.698,27.555-13.946,40.066-16.539c12.512-2.593,36.358,0.999,43.777,9.057      c13.416,14.569,11.653,52.096,4.623,47.762c-7.029-4.334-41.539-14.789-44.555-6.947      C899.284,683.852,882.946,731.985,871.632,738.044z"/>
				<path style="fill:#AA413E;" d="M1085.155,1048.488c-2.644-1.758-28.666-19.34-33.741-26.107l-5.91-6.878      c-18.689-24.159-51.081-79.597-51.081-79.597s-0.354,2.247-0.948,6.967c-0.044-0.56-1.895-24.364,11.162-13.021      c13.203,11.488,54.275,86.874,64.877,101.059C1073.649,1036.431,1079.523,1042.786,1085.155,1048.488z"/>
				<path style="fill:#AA413E;" d="M820.331,1122.771c-9.181,13.573-28.49,18.034-44.423,19.258      c-1.877-0.439-3.755-0.87-5.633-1.292c-6.89-1.55-12.006-7.08-10.137-13.893c6.451-23.555,19.3-71.776,21.289-89.189      c3.084-26.984,6.46-99.397,6.951-110.085c3.574-0.035,23.804,2.36,28.507,60.338      C822.054,1051.58,837.453,1097.449,820.331,1122.771z"/>
			</g>
		</g>
		<g>
			<path style="fill:#FFFFFF;" d="M1039.648,1328.629c0.466,0,0.869,0.17,1.21,0.509c0.339,0.34,0.509,0.743,0.509,1.21v4.521     c0,0.467-0.17,0.87-0.509,1.209c-0.341,0.342-0.744,0.51-1.21,0.51h-11.462v34.896c0,0.468-0.17,0.871-0.509,1.21     c-0.34,0.34-0.743,0.509-1.21,0.509h-5.158c-0.468,0-0.871-0.169-1.21-0.509c-0.341-0.339-0.51-0.742-0.51-1.21v-34.896h-11.462     c-0.467,0-0.871-0.168-1.21-0.51c-0.34-0.339-0.509-0.742-0.509-1.209v-4.521c0-0.467,0.169-0.87,0.509-1.21     c0.339-0.339,0.742-0.509,1.21-0.509H1039.648z"/>
			<path style="fill:#FFFFFF;" d="M1049.455,1373.203c-0.468,0-0.871-0.169-1.21-0.509c-0.341-0.339-0.51-0.742-0.51-1.21v-41.137     c0-0.467,0.169-0.87,0.51-1.21c0.339-0.339,0.742-0.509,1.21-0.509h5.158c0.467,0,0.87,0.17,1.21,0.509     c0.339,0.34,0.509,0.743,0.509,1.21v41.137c0,0.468-0.17,0.871-0.509,1.21c-0.34,0.34-0.743,0.509-1.21,0.509H1049.455z"/>
			<path style="fill:#FFFFFF;" d="M1093.646,1359.066c0.085-0.551,0.307-0.965,0.668-1.241c0.36-0.275,0.754-0.415,1.178-0.415     h5.158c0.467,0,0.881,0.16,1.242,0.479s0.52,0.732,0.478,1.242c-0.127,1.741-0.563,3.481-1.305,5.222     c-0.744,1.741-1.878,3.312-3.407,4.712c-1.528,1.4-3.461,2.547-5.794,3.438c-2.335,0.892-5.158,1.337-8.469,1.337     c-2.93,0-5.52-0.436-7.769-1.305c-2.25-0.87-4.161-2.08-5.731-3.63c-1.571-1.55-2.792-3.407-3.662-5.572     c-0.871-2.165-1.391-4.521-1.56-7.068c-0.086-1.612-0.127-3.396-0.127-5.349c0-1.952,0.042-3.735,0.127-5.349     c0.169-2.548,0.689-4.904,1.56-7.068c0.87-2.165,2.091-4.021,3.662-5.572c1.57-1.55,3.48-2.759,5.731-3.63     c2.25-0.869,4.839-1.305,7.769-1.305c3.311,0,6.134,0.445,8.469,1.337c2.333,0.891,4.266,2.038,5.794,3.438     c1.529,1.4,2.664,2.983,3.407,4.744c0.742,1.762,1.178,3.492,1.305,5.189c0.042,0.51-0.118,0.924-0.478,1.242     s-0.775,0.477-1.242,0.477h-5.158c-0.424,0-0.827-0.137-1.209-0.413c-0.381-0.275-0.616-0.69-0.701-1.242     c-0.127-0.849-0.425-1.676-0.891-2.483c-0.468-0.806-1.104-1.528-1.91-2.165c-0.808-0.637-1.827-1.155-3.058-1.56     c-1.232-0.403-2.675-0.605-4.33-0.605c-1.656,0-3.1,0.255-4.33,0.764c-1.232,0.511-2.261,1.189-3.089,2.038     c-0.827,0.851-1.464,1.869-1.91,3.057c-0.445,1.189-0.711,2.441-0.795,3.758c-0.086,1.613-0.128,3.396-0.128,5.349     c0,1.953,0.042,3.736,0.128,5.349c0.084,1.359,0.35,2.622,0.795,3.789c0.446,1.168,1.083,2.176,1.91,3.025     c0.828,0.849,1.857,1.527,3.089,2.037c1.23,0.51,2.674,0.764,4.33,0.764c1.655,0,3.098-0.201,4.33-0.604     c1.231-0.403,2.261-0.923,3.088-1.56c0.828-0.637,1.475-1.358,1.942-2.166     C1093.221,1360.744,1093.519,1359.916,1093.646,1359.066z"/>
			<path style="fill:#FFFFFF;" d="M1143.633,1370.529c0.212,0.213,0.339,0.403,0.383,0.572c0.042,0.17,0.063,0.298,0.063,0.383     c0,0.468-0.17,0.871-0.509,1.21c-0.34,0.34-0.743,0.509-1.21,0.509h-6.05c-0.849,0-1.527-0.223-2.037-0.668     c-0.51-0.445-0.808-0.711-0.892-0.797l-14.964-16.875v16.621c0,0.468-0.17,0.871-0.509,1.21c-0.34,0.34-0.743,0.509-1.21,0.509     h-5.158c-0.468,0-0.871-0.169-1.21-0.509c-0.341-0.339-0.51-0.742-0.51-1.21v-41.137c0-0.467,0.169-0.87,0.51-1.21     c0.339-0.339,0.742-0.509,1.21-0.509h5.158c0.467,0,0.87,0.17,1.21,0.509c0.339,0.34,0.509,0.743,0.509,1.21v14.965     l13.882-15.283c0.382-0.424,0.785-0.764,1.209-1.02c0.423-0.254,0.976-0.381,1.656-0.381h5.858c0.467,0,0.87,0.17,1.209,0.509     c0.339,0.34,0.51,0.743,0.51,1.21c0,0.34-0.127,0.658-0.383,0.955l-17.129,18.658L1143.633,1370.529z"/>
			<path style="fill:#FFFFFF;" d="M1179.484,1365.243c0.466,0,0.869,0.17,1.21,0.51c0.339,0.341,0.509,0.743,0.509,1.21v4.521     c0,0.468-0.17,0.871-0.509,1.21c-0.341,0.34-0.744,0.509-1.21,0.509h-27.955c-0.468,0-0.871-0.169-1.209-0.509     c-0.341-0.339-0.51-0.742-0.51-1.21v-41.137c0-0.467,0.169-0.87,0.51-1.21c0.339-0.339,0.742-0.509,1.209-0.509h27.445     c0.467,0,0.87,0.17,1.21,0.509c0.34,0.34,0.51,0.743,0.51,1.21v4.521c0,0.467-0.17,0.87-0.51,1.209     c-0.34,0.342-0.743,0.51-1.21,0.51h-20.568v10.125h19.167c0.467,0,0.87,0.17,1.211,0.51c0.339,0.34,0.509,0.743,0.509,1.21v4.521     c0,0.468-0.17,0.871-0.509,1.21c-0.341,0.341-0.744,0.51-1.211,0.51h-19.167v10.57H1179.484z"/>
			<path style="fill:#FFFFFF;" d="M1218.773,1328.629c0.466,0,0.869,0.17,1.209,0.509c0.339,0.34,0.509,0.743,0.509,1.21v4.521     c0,0.467-0.17,0.87-0.509,1.209c-0.341,0.342-0.744,0.51-1.209,0.51h-11.463v34.896c0,0.468-0.17,0.871-0.509,1.21     c-0.34,0.34-0.743,0.509-1.21,0.509h-5.158c-0.468,0-0.871-0.169-1.21-0.509c-0.341-0.339-0.51-0.742-0.51-1.21v-34.896h-11.462     c-0.467,0-0.871-0.168-1.209-0.51c-0.34-0.339-0.509-0.742-0.509-1.209v-4.521c0-0.467,0.169-0.87,0.509-1.21     c0.339-0.339,0.742-0.509,1.209-0.509H1218.773z"/>
			<path style="fill:#FFFFFF;" d="M989.47,1405.043c0.466,0,0.869,0.17,1.21,0.51c0.339,0.34,0.509,0.742,0.509,1.209v4.521     c0,0.468-0.17,0.871-0.509,1.21c-0.341,0.341-0.744,0.509-1.21,0.509h-11.463v34.897c0,0.467-0.17,0.87-0.509,1.209     c-0.34,0.341-0.743,0.51-1.209,0.51h-5.158c-0.467,0-0.871-0.169-1.209-0.51c-0.341-0.339-0.51-0.742-0.51-1.209v-34.897h-11.462     c-0.468,0-0.871-0.168-1.21-0.509c-0.34-0.339-0.509-0.742-0.509-1.21v-4.521c0-0.467,0.169-0.869,0.509-1.209     c0.339-0.34,0.742-0.51,1.21-0.51H989.47z"/>
			<path style="fill:#FFFFFF;" d="M1027.231,1441.658c0.466,0,0.869,0.17,1.209,0.509c0.339,0.341,0.509,0.744,0.509,1.211v4.521     c0,0.467-0.17,0.87-0.509,1.209c-0.341,0.341-0.744,0.51-1.209,0.51h-27.956c-0.467,0-0.871-0.169-1.21-0.51     c-0.341-0.339-0.51-0.742-0.51-1.209v-41.138c0-0.467,0.169-0.869,0.51-1.209c0.339-0.34,0.742-0.51,1.21-0.51h27.445     c0.466,0,0.87,0.17,1.209,0.51c0.34,0.34,0.51,0.742,0.51,1.209v4.521c0,0.468-0.17,0.871-0.51,1.21     c-0.34,0.341-0.743,0.509-1.209,0.509h-20.568v10.126h19.167c0.467,0,0.87,0.17,1.21,0.509c0.339,0.34,0.51,0.743,0.51,1.21     v4.521c0,0.468-0.17,0.87-0.51,1.21c-0.341,0.341-0.744,0.51-1.21,0.51h-19.167v10.57H1027.231z"/>
			<path style="fill:#FFFFFF;" d="M1054.993,1405.043c5.307,0,9.339,1.232,12.1,3.693c2.759,2.463,4.139,5.881,4.139,10.252     c0,3.1-0.711,5.742-2.133,7.928c-1.423,2.188-3.513,3.812-6.273,4.872l8.789,15.729c0.126,0.255,0.19,0.488,0.19,0.7     c0,0.383-0.138,0.711-0.414,0.987c-0.276,0.276-0.604,0.414-0.986,0.414h-5.413c-0.85,0-1.476-0.201-1.878-0.605     c-0.404-0.402-0.691-0.773-0.86-1.113l-8.342-14.838h-8.47v14.838c0,0.467-0.17,0.87-0.509,1.209     c-0.34,0.341-0.743,0.51-1.21,0.51h-5.158c-0.467,0-0.87-0.169-1.209-0.51c-0.341-0.339-0.51-0.742-0.51-1.209v-41.138     c0-0.467,0.169-0.869,0.51-1.209c0.339-0.34,0.742-0.51,1.209-0.51H1054.993z M1045.441,1425.102h9.234     c2.419,0,4.351-0.424,5.794-1.273c1.443-0.85,2.166-2.462,2.166-4.84c0-2.377-0.723-3.969-2.166-4.775     c-1.443-0.806-3.375-1.211-5.794-1.211h-9.234V1425.102z"/>
			<path style="fill:#FFFFFF;" d="M1100.396,1427.776l12.099-21.015c0.169-0.211,0.456-0.551,0.86-1.019     c0.403-0.466,1.029-0.7,1.878-0.7h4.331c0.466,0,0.869,0.17,1.209,0.51c0.339,0.34,0.509,0.742,0.509,1.209v41.138     c0,0.467-0.17,0.87-0.509,1.209c-0.341,0.341-0.744,0.51-1.209,0.51h-5.159c-0.468,0-0.871-0.169-1.21-0.51     c-0.34-0.339-0.509-0.742-0.509-1.209V1423l-8.278,14.328c-0.213,0.34-0.509,0.69-0.892,1.051     c-0.382,0.361-0.871,0.541-1.464,0.541h-3.312c-0.595,0-1.083-0.18-1.465-0.541c-0.382-0.36-0.68-0.711-0.892-1.051     l-8.278-14.328v24.899c0,0.467-0.17,0.87-0.509,1.209c-0.34,0.341-0.743,0.51-1.21,0.51h-5.158c-0.468,0-0.871-0.169-1.21-0.51     c-0.341-0.339-0.51-0.742-0.51-1.209v-41.138c0-0.467,0.169-0.869,0.51-1.209c0.339-0.34,0.742-0.51,1.21-0.51h4.33     c0.849,0,1.475,0.234,1.878,0.7c0.403,0.468,0.69,0.808,0.86,1.019L1100.396,1427.776z"/>
			<path style="fill:#FFFFFF;" d="M1132.937,1449.618c-0.468,0-0.871-0.169-1.21-0.51c-0.341-0.339-0.51-0.742-0.51-1.209v-41.138     c0-0.467,0.169-0.869,0.51-1.209c0.339-0.34,0.742-0.51,1.21-0.51h5.158c0.467,0,0.87,0.17,1.21,0.51     c0.339,0.34,0.509,0.742,0.509,1.209v41.138c0,0.467-0.17,0.87-0.509,1.209c-0.34,0.341-0.743,0.51-1.21,0.51H1132.937z"/>
			<path style="fill:#FFFFFF;" d="M1178.657,1449.618c-0.723,0-1.273-0.191-1.656-0.573c-0.381-0.383-0.658-0.679-0.827-0.892     l-17.83-26.49v26.236c0,0.467-0.17,0.87-0.51,1.209c-0.34,0.341-0.743,0.51-1.209,0.51h-5.158c-0.468,0-0.871-0.169-1.21-0.51     c-0.341-0.339-0.51-0.742-0.51-1.209v-41.138c0-0.467,0.169-0.869,0.51-1.209c0.339-0.34,0.742-0.51,1.21-0.51h4.457     c0.721,0,1.273,0.19,1.655,0.573c0.383,0.382,0.658,0.679,0.828,0.892l17.83,26.49v-26.236c0-0.467,0.169-0.869,0.51-1.209     c0.339-0.34,0.742-0.51,1.21-0.51h5.158c0.467,0,0.87,0.17,1.21,0.51c0.339,0.34,0.509,0.742,0.509,1.209v41.138     c0,0.467-0.17,0.87-0.509,1.209c-0.34,0.341-0.743,0.51-1.21,0.51H1178.657z"/>
			<path style="fill:#FFFFFF;" d="M1215.717,1405.043c0.679,0,1.188,0.181,1.529,0.541c0.339,0.361,0.637,0.902,0.891,1.623     l15.601,40.246c0.042,0.127,0.064,0.276,0.064,0.446c0,0.467-0.17,0.87-0.509,1.209c-0.34,0.341-0.743,0.51-1.21,0.51h-4.585     c-0.85,0-1.443-0.18-1.783-0.541c-0.341-0.36-0.574-0.711-0.701-1.052l-2.738-7.068h-20.123l-2.738,7.068     c-0.128,0.341-0.361,0.691-0.701,1.052c-0.34,0.361-0.934,0.541-1.783,0.541h-4.585c-0.468,0-0.871-0.169-1.21-0.51     c-0.34-0.339-0.509-0.742-0.509-1.209c0-0.17,0.02-0.319,0.063-0.446l15.602-40.246c0.254-0.721,0.551-1.262,0.891-1.623     c0.339-0.36,0.849-0.541,1.529-0.541H1215.717z M1219.22,1432.998l-7.006-18.148l-7.004,18.148H1219.22z"/>
			<path style="fill:#FFFFFF;" d="M1269.208,1441.658c0.467,0,0.87,0.17,1.21,0.509c0.339,0.341,0.509,0.744,0.509,1.211v4.521     c0,0.467-0.17,0.87-0.509,1.209c-0.34,0.341-0.743,0.51-1.21,0.51h-27.891c-0.468,0-0.871-0.169-1.21-0.51     c-0.341-0.339-0.51-0.742-0.51-1.209v-41.138c0-0.467,0.169-0.869,0.51-1.209c0.339-0.34,0.742-0.51,1.21-0.51h5.158     c0.467,0,0.87,0.17,1.21,0.51c0.339,0.34,0.509,0.742,0.509,1.209v34.896H1269.208z"/>
		</g>
		<g>
			<path style="fill:#F99746;" d="M1645.644,450.27c-80.865,0-146.419,65.554-146.419,146.419     c0,80.865,146.419,226.184,146.419,226.184s146.419-145.319,146.419-226.184C1792.063,515.824,1726.509,450.27,1645.644,450.27z      M1645.644,683.363c-54.866,0-99.344-44.478-99.344-99.344c0-54.866,44.478-99.344,99.344-99.344s99.345,44.477,99.345,99.344     C1744.988,638.885,1700.51,683.363,1645.644,683.363z"/>
			<path style="fill:#F99746;" d="M1654.939,573.063c-14.111-5.313-19.921-8.798-19.921-14.277c0-4.648,3.486-9.297,14.277-9.297     c11.952,0,19.59,3.819,23.906,5.646l4.813-18.76c-5.477-2.656-12.949-4.98-24.073-5.479v-14.609h-16.268v15.772     c-17.764,3.486-28.055,14.941-28.055,29.55c0,16.104,12.118,24.404,29.881,30.38c12.285,4.15,17.598,8.135,17.598,14.444     c0,6.64-6.476,10.292-15.938,10.292c-10.791,0-20.586-3.486-27.559-7.304l-4.979,19.423c6.309,3.652,17.098,6.64,28.222,7.139     v15.771h16.269v-16.933c19.092-3.32,29.551-15.937,29.551-30.712C1682.664,589.166,1674.695,580.035,1654.939,573.063z"/>
		</g>
	</g>
	<path style="fill:#88B374;" d="M1286.287,864.743c1.391,3.803,2.15,7.91,2.15,12.194c0,19.606-15.894,35.5-35.5,35.5   c-19.606,0-35.5-15.894-35.5-35.5c0-19.606,15.894-35.5,35.5-35.5c11.822,0,22.275,5.793,28.727,14.68l-30.477,28.403   l-14.333-15.333h-7.5l21.833,24l58-54.333h-9l-14.475,13.491c-7.479-9.955-19.365-16.408-32.775-16.408c-22.644,0-41,18.357-41,41   c0,22.644,18.356,41,41,41c22.644,0,41-18.356,41-41c0-5.766-1.196-11.251-3.344-16.228L1286.287,864.743z"/>
	<path style="fill:#2E3552;" d="M2838.147,1669.832H161.852c-2.634,0-4.788-2.154-4.788-4.788v-0.001   c0-2.634,2.155-4.789,4.789-4.789h2676.295c2.634,0,4.789,2.155,4.789,4.789l0,0   C2842.937,1667.678,2840.781,1669.832,2838.147,1669.832z"/>
</g>
</svg>